G75*
%MOIN*%
%OFA0B0*%
%FSLAX25Y25*%
%IPPOS*%
%LPD*%
%AMOC8*
5,1,8,0,0,1.08239X$1,22.5*
%
%ADD10C,0.00000*%
%ADD11C,0.00600*%
%ADD12C,0.00300*%
%ADD13C,0.00800*%
%ADD14C,0.00200*%
%ADD15C,0.00500*%
%ADD16C,0.00400*%
D10*
X0009374Y0017248D02*
X0009374Y0099925D01*
X0009376Y0100115D01*
X0009383Y0100305D01*
X0009395Y0100495D01*
X0009411Y0100685D01*
X0009431Y0100874D01*
X0009457Y0101063D01*
X0009486Y0101251D01*
X0009521Y0101438D01*
X0009560Y0101624D01*
X0009603Y0101809D01*
X0009651Y0101994D01*
X0009703Y0102177D01*
X0009759Y0102358D01*
X0009820Y0102538D01*
X0009886Y0102717D01*
X0009955Y0102894D01*
X0010029Y0103070D01*
X0010107Y0103243D01*
X0010190Y0103415D01*
X0010276Y0103584D01*
X0010366Y0103752D01*
X0010461Y0103917D01*
X0010559Y0104080D01*
X0010662Y0104240D01*
X0010768Y0104398D01*
X0010878Y0104553D01*
X0010991Y0104706D01*
X0011109Y0104856D01*
X0011230Y0105002D01*
X0011354Y0105146D01*
X0011482Y0105287D01*
X0011613Y0105425D01*
X0011748Y0105560D01*
X0011886Y0105691D01*
X0012027Y0105819D01*
X0012171Y0105943D01*
X0012317Y0106064D01*
X0012467Y0106182D01*
X0012620Y0106295D01*
X0012775Y0106405D01*
X0012933Y0106511D01*
X0013093Y0106614D01*
X0013256Y0106712D01*
X0013421Y0106807D01*
X0013589Y0106897D01*
X0013758Y0106983D01*
X0013930Y0107066D01*
X0014103Y0107144D01*
X0014279Y0107218D01*
X0014456Y0107287D01*
X0014635Y0107353D01*
X0014815Y0107414D01*
X0014996Y0107470D01*
X0015179Y0107522D01*
X0015364Y0107570D01*
X0015549Y0107613D01*
X0015735Y0107652D01*
X0015922Y0107687D01*
X0016110Y0107716D01*
X0016299Y0107742D01*
X0016488Y0107762D01*
X0016678Y0107778D01*
X0016868Y0107790D01*
X0017058Y0107797D01*
X0017248Y0107799D01*
X0099925Y0107799D01*
X0100115Y0107797D01*
X0100305Y0107790D01*
X0100495Y0107778D01*
X0100685Y0107762D01*
X0100874Y0107742D01*
X0101063Y0107716D01*
X0101251Y0107687D01*
X0101438Y0107652D01*
X0101624Y0107613D01*
X0101809Y0107570D01*
X0101994Y0107522D01*
X0102177Y0107470D01*
X0102358Y0107414D01*
X0102538Y0107353D01*
X0102717Y0107287D01*
X0102894Y0107218D01*
X0103070Y0107144D01*
X0103243Y0107066D01*
X0103415Y0106983D01*
X0103584Y0106897D01*
X0103752Y0106807D01*
X0103917Y0106712D01*
X0104080Y0106614D01*
X0104240Y0106511D01*
X0104398Y0106405D01*
X0104553Y0106295D01*
X0104706Y0106182D01*
X0104856Y0106064D01*
X0105002Y0105943D01*
X0105146Y0105819D01*
X0105287Y0105691D01*
X0105425Y0105560D01*
X0105560Y0105425D01*
X0105691Y0105287D01*
X0105819Y0105146D01*
X0105943Y0105002D01*
X0106064Y0104856D01*
X0106182Y0104706D01*
X0106295Y0104553D01*
X0106405Y0104398D01*
X0106511Y0104240D01*
X0106614Y0104080D01*
X0106712Y0103917D01*
X0106807Y0103752D01*
X0106897Y0103584D01*
X0106983Y0103415D01*
X0107066Y0103243D01*
X0107144Y0103070D01*
X0107218Y0102894D01*
X0107287Y0102717D01*
X0107353Y0102538D01*
X0107414Y0102358D01*
X0107470Y0102177D01*
X0107522Y0101994D01*
X0107570Y0101809D01*
X0107613Y0101624D01*
X0107652Y0101438D01*
X0107687Y0101251D01*
X0107716Y0101063D01*
X0107742Y0100874D01*
X0107762Y0100685D01*
X0107778Y0100495D01*
X0107790Y0100305D01*
X0107797Y0100115D01*
X0107799Y0099925D01*
X0107799Y0017248D01*
X0107797Y0017058D01*
X0107790Y0016868D01*
X0107778Y0016678D01*
X0107762Y0016488D01*
X0107742Y0016299D01*
X0107716Y0016110D01*
X0107687Y0015922D01*
X0107652Y0015735D01*
X0107613Y0015549D01*
X0107570Y0015364D01*
X0107522Y0015179D01*
X0107470Y0014996D01*
X0107414Y0014815D01*
X0107353Y0014635D01*
X0107287Y0014456D01*
X0107218Y0014279D01*
X0107144Y0014103D01*
X0107066Y0013930D01*
X0106983Y0013758D01*
X0106897Y0013589D01*
X0106807Y0013421D01*
X0106712Y0013256D01*
X0106614Y0013093D01*
X0106511Y0012933D01*
X0106405Y0012775D01*
X0106295Y0012620D01*
X0106182Y0012467D01*
X0106064Y0012317D01*
X0105943Y0012171D01*
X0105819Y0012027D01*
X0105691Y0011886D01*
X0105560Y0011748D01*
X0105425Y0011613D01*
X0105287Y0011482D01*
X0105146Y0011354D01*
X0105002Y0011230D01*
X0104856Y0011109D01*
X0104706Y0010991D01*
X0104553Y0010878D01*
X0104398Y0010768D01*
X0104240Y0010662D01*
X0104080Y0010559D01*
X0103917Y0010461D01*
X0103752Y0010366D01*
X0103584Y0010276D01*
X0103415Y0010190D01*
X0103243Y0010107D01*
X0103070Y0010029D01*
X0102894Y0009955D01*
X0102717Y0009886D01*
X0102538Y0009820D01*
X0102358Y0009759D01*
X0102177Y0009703D01*
X0101994Y0009651D01*
X0101809Y0009603D01*
X0101624Y0009560D01*
X0101438Y0009521D01*
X0101251Y0009486D01*
X0101063Y0009457D01*
X0100874Y0009431D01*
X0100685Y0009411D01*
X0100495Y0009395D01*
X0100305Y0009383D01*
X0100115Y0009376D01*
X0099925Y0009374D01*
X0017248Y0009374D01*
X0017058Y0009376D01*
X0016868Y0009383D01*
X0016678Y0009395D01*
X0016488Y0009411D01*
X0016299Y0009431D01*
X0016110Y0009457D01*
X0015922Y0009486D01*
X0015735Y0009521D01*
X0015549Y0009560D01*
X0015364Y0009603D01*
X0015179Y0009651D01*
X0014996Y0009703D01*
X0014815Y0009759D01*
X0014635Y0009820D01*
X0014456Y0009886D01*
X0014279Y0009955D01*
X0014103Y0010029D01*
X0013930Y0010107D01*
X0013758Y0010190D01*
X0013589Y0010276D01*
X0013421Y0010366D01*
X0013256Y0010461D01*
X0013093Y0010559D01*
X0012933Y0010662D01*
X0012775Y0010768D01*
X0012620Y0010878D01*
X0012467Y0010991D01*
X0012317Y0011109D01*
X0012171Y0011230D01*
X0012027Y0011354D01*
X0011886Y0011482D01*
X0011748Y0011613D01*
X0011613Y0011748D01*
X0011482Y0011886D01*
X0011354Y0012027D01*
X0011230Y0012171D01*
X0011109Y0012317D01*
X0010991Y0012467D01*
X0010878Y0012620D01*
X0010768Y0012775D01*
X0010662Y0012933D01*
X0010559Y0013093D01*
X0010461Y0013256D01*
X0010366Y0013421D01*
X0010276Y0013589D01*
X0010190Y0013758D01*
X0010107Y0013930D01*
X0010029Y0014103D01*
X0009955Y0014279D01*
X0009886Y0014456D01*
X0009820Y0014635D01*
X0009759Y0014815D01*
X0009703Y0014996D01*
X0009651Y0015179D01*
X0009603Y0015364D01*
X0009560Y0015549D01*
X0009521Y0015735D01*
X0009486Y0015922D01*
X0009457Y0016110D01*
X0009431Y0016299D01*
X0009411Y0016488D01*
X0009395Y0016678D01*
X0009383Y0016868D01*
X0009376Y0017058D01*
X0009374Y0017248D01*
X0017248Y0095988D02*
X0017250Y0096113D01*
X0017256Y0096238D01*
X0017266Y0096362D01*
X0017280Y0096486D01*
X0017297Y0096610D01*
X0017319Y0096733D01*
X0017345Y0096855D01*
X0017374Y0096977D01*
X0017407Y0097097D01*
X0017445Y0097216D01*
X0017485Y0097335D01*
X0017530Y0097451D01*
X0017578Y0097566D01*
X0017630Y0097680D01*
X0017686Y0097792D01*
X0017745Y0097902D01*
X0017807Y0098010D01*
X0017873Y0098117D01*
X0017942Y0098221D01*
X0018015Y0098322D01*
X0018090Y0098422D01*
X0018169Y0098519D01*
X0018251Y0098613D01*
X0018336Y0098705D01*
X0018423Y0098794D01*
X0018514Y0098880D01*
X0018607Y0098963D01*
X0018703Y0099044D01*
X0018801Y0099121D01*
X0018901Y0099195D01*
X0019004Y0099266D01*
X0019109Y0099333D01*
X0019217Y0099398D01*
X0019326Y0099458D01*
X0019437Y0099516D01*
X0019550Y0099569D01*
X0019664Y0099619D01*
X0019780Y0099666D01*
X0019897Y0099708D01*
X0020016Y0099747D01*
X0020136Y0099783D01*
X0020257Y0099814D01*
X0020379Y0099842D01*
X0020501Y0099865D01*
X0020625Y0099885D01*
X0020749Y0099901D01*
X0020873Y0099913D01*
X0020998Y0099921D01*
X0021123Y0099925D01*
X0021247Y0099925D01*
X0021372Y0099921D01*
X0021497Y0099913D01*
X0021621Y0099901D01*
X0021745Y0099885D01*
X0021869Y0099865D01*
X0021991Y0099842D01*
X0022113Y0099814D01*
X0022234Y0099783D01*
X0022354Y0099747D01*
X0022473Y0099708D01*
X0022590Y0099666D01*
X0022706Y0099619D01*
X0022820Y0099569D01*
X0022933Y0099516D01*
X0023044Y0099458D01*
X0023154Y0099398D01*
X0023261Y0099333D01*
X0023366Y0099266D01*
X0023469Y0099195D01*
X0023569Y0099121D01*
X0023667Y0099044D01*
X0023763Y0098963D01*
X0023856Y0098880D01*
X0023947Y0098794D01*
X0024034Y0098705D01*
X0024119Y0098613D01*
X0024201Y0098519D01*
X0024280Y0098422D01*
X0024355Y0098322D01*
X0024428Y0098221D01*
X0024497Y0098117D01*
X0024563Y0098010D01*
X0024625Y0097902D01*
X0024684Y0097792D01*
X0024740Y0097680D01*
X0024792Y0097566D01*
X0024840Y0097451D01*
X0024885Y0097335D01*
X0024925Y0097216D01*
X0024963Y0097097D01*
X0024996Y0096977D01*
X0025025Y0096855D01*
X0025051Y0096733D01*
X0025073Y0096610D01*
X0025090Y0096486D01*
X0025104Y0096362D01*
X0025114Y0096238D01*
X0025120Y0096113D01*
X0025122Y0095988D01*
X0025120Y0095863D01*
X0025114Y0095738D01*
X0025104Y0095614D01*
X0025090Y0095490D01*
X0025073Y0095366D01*
X0025051Y0095243D01*
X0025025Y0095121D01*
X0024996Y0094999D01*
X0024963Y0094879D01*
X0024925Y0094760D01*
X0024885Y0094641D01*
X0024840Y0094525D01*
X0024792Y0094410D01*
X0024740Y0094296D01*
X0024684Y0094184D01*
X0024625Y0094074D01*
X0024563Y0093966D01*
X0024497Y0093859D01*
X0024428Y0093755D01*
X0024355Y0093654D01*
X0024280Y0093554D01*
X0024201Y0093457D01*
X0024119Y0093363D01*
X0024034Y0093271D01*
X0023947Y0093182D01*
X0023856Y0093096D01*
X0023763Y0093013D01*
X0023667Y0092932D01*
X0023569Y0092855D01*
X0023469Y0092781D01*
X0023366Y0092710D01*
X0023261Y0092643D01*
X0023153Y0092578D01*
X0023044Y0092518D01*
X0022933Y0092460D01*
X0022820Y0092407D01*
X0022706Y0092357D01*
X0022590Y0092310D01*
X0022473Y0092268D01*
X0022354Y0092229D01*
X0022234Y0092193D01*
X0022113Y0092162D01*
X0021991Y0092134D01*
X0021869Y0092111D01*
X0021745Y0092091D01*
X0021621Y0092075D01*
X0021497Y0092063D01*
X0021372Y0092055D01*
X0021247Y0092051D01*
X0021123Y0092051D01*
X0020998Y0092055D01*
X0020873Y0092063D01*
X0020749Y0092075D01*
X0020625Y0092091D01*
X0020501Y0092111D01*
X0020379Y0092134D01*
X0020257Y0092162D01*
X0020136Y0092193D01*
X0020016Y0092229D01*
X0019897Y0092268D01*
X0019780Y0092310D01*
X0019664Y0092357D01*
X0019550Y0092407D01*
X0019437Y0092460D01*
X0019326Y0092518D01*
X0019216Y0092578D01*
X0019109Y0092643D01*
X0019004Y0092710D01*
X0018901Y0092781D01*
X0018801Y0092855D01*
X0018703Y0092932D01*
X0018607Y0093013D01*
X0018514Y0093096D01*
X0018423Y0093182D01*
X0018336Y0093271D01*
X0018251Y0093363D01*
X0018169Y0093457D01*
X0018090Y0093554D01*
X0018015Y0093654D01*
X0017942Y0093755D01*
X0017873Y0093859D01*
X0017807Y0093966D01*
X0017745Y0094074D01*
X0017686Y0094184D01*
X0017630Y0094296D01*
X0017578Y0094410D01*
X0017530Y0094525D01*
X0017485Y0094641D01*
X0017445Y0094760D01*
X0017407Y0094879D01*
X0017374Y0094999D01*
X0017345Y0095121D01*
X0017319Y0095243D01*
X0017297Y0095366D01*
X0017280Y0095490D01*
X0017266Y0095614D01*
X0017256Y0095738D01*
X0017250Y0095863D01*
X0017248Y0095988D01*
D11*
X0015617Y0095988D02*
X0015619Y0096137D01*
X0015625Y0096286D01*
X0015635Y0096434D01*
X0015649Y0096582D01*
X0015667Y0096730D01*
X0015688Y0096877D01*
X0015714Y0097024D01*
X0015744Y0097170D01*
X0015777Y0097315D01*
X0015815Y0097459D01*
X0015856Y0097602D01*
X0015901Y0097744D01*
X0015950Y0097885D01*
X0016003Y0098024D01*
X0016059Y0098162D01*
X0016119Y0098298D01*
X0016182Y0098433D01*
X0016249Y0098565D01*
X0016320Y0098696D01*
X0016394Y0098826D01*
X0016472Y0098953D01*
X0016553Y0099078D01*
X0016637Y0099200D01*
X0016725Y0099321D01*
X0016815Y0099439D01*
X0016909Y0099554D01*
X0017006Y0099667D01*
X0017106Y0099778D01*
X0017209Y0099885D01*
X0017314Y0099990D01*
X0017423Y0100092D01*
X0017534Y0100192D01*
X0017647Y0100288D01*
X0017764Y0100381D01*
X0017882Y0100471D01*
X0018003Y0100557D01*
X0018126Y0100641D01*
X0018252Y0100721D01*
X0018380Y0100798D01*
X0018509Y0100871D01*
X0018641Y0100941D01*
X0018774Y0101007D01*
X0018909Y0101070D01*
X0019046Y0101129D01*
X0019184Y0101184D01*
X0019323Y0101236D01*
X0019464Y0101283D01*
X0019607Y0101328D01*
X0019750Y0101368D01*
X0019894Y0101404D01*
X0020039Y0101437D01*
X0020186Y0101466D01*
X0020332Y0101490D01*
X0020480Y0101511D01*
X0020628Y0101528D01*
X0020776Y0101541D01*
X0020925Y0101550D01*
X0021073Y0101555D01*
X0021222Y0101556D01*
X0021371Y0101553D01*
X0021520Y0101546D01*
X0021668Y0101535D01*
X0021816Y0101520D01*
X0021964Y0101501D01*
X0022111Y0101478D01*
X0022258Y0101452D01*
X0022403Y0101421D01*
X0022548Y0101387D01*
X0022692Y0101348D01*
X0022835Y0101306D01*
X0022976Y0101260D01*
X0023117Y0101210D01*
X0023255Y0101157D01*
X0023393Y0101100D01*
X0023529Y0101039D01*
X0023663Y0100974D01*
X0023795Y0100906D01*
X0023926Y0100835D01*
X0024055Y0100760D01*
X0024181Y0100681D01*
X0024305Y0100599D01*
X0024428Y0100514D01*
X0024547Y0100426D01*
X0024665Y0100335D01*
X0024780Y0100240D01*
X0024892Y0100142D01*
X0025002Y0100042D01*
X0025109Y0099938D01*
X0025213Y0099832D01*
X0025315Y0099723D01*
X0025413Y0099611D01*
X0025508Y0099497D01*
X0025601Y0099380D01*
X0025690Y0099261D01*
X0025775Y0099139D01*
X0025858Y0099015D01*
X0025937Y0098889D01*
X0026013Y0098761D01*
X0026086Y0098631D01*
X0026155Y0098499D01*
X0026220Y0098365D01*
X0026282Y0098230D01*
X0026340Y0098093D01*
X0026394Y0097954D01*
X0026445Y0097814D01*
X0026492Y0097673D01*
X0026535Y0097531D01*
X0026574Y0097387D01*
X0026610Y0097243D01*
X0026641Y0097097D01*
X0026669Y0096951D01*
X0026693Y0096804D01*
X0026713Y0096656D01*
X0026729Y0096508D01*
X0026741Y0096360D01*
X0026749Y0096211D01*
X0026753Y0096062D01*
X0026753Y0095914D01*
X0026749Y0095765D01*
X0026741Y0095616D01*
X0026729Y0095468D01*
X0026713Y0095320D01*
X0026693Y0095172D01*
X0026669Y0095025D01*
X0026641Y0094879D01*
X0026610Y0094733D01*
X0026574Y0094589D01*
X0026535Y0094445D01*
X0026492Y0094303D01*
X0026445Y0094162D01*
X0026394Y0094022D01*
X0026340Y0093883D01*
X0026282Y0093746D01*
X0026220Y0093611D01*
X0026155Y0093477D01*
X0026086Y0093345D01*
X0026013Y0093215D01*
X0025937Y0093087D01*
X0025858Y0092961D01*
X0025775Y0092837D01*
X0025690Y0092715D01*
X0025601Y0092596D01*
X0025508Y0092479D01*
X0025413Y0092365D01*
X0025315Y0092253D01*
X0025213Y0092144D01*
X0025109Y0092038D01*
X0025002Y0091934D01*
X0024892Y0091834D01*
X0024780Y0091736D01*
X0024665Y0091641D01*
X0024547Y0091550D01*
X0024428Y0091462D01*
X0024305Y0091377D01*
X0024181Y0091295D01*
X0024055Y0091216D01*
X0023926Y0091141D01*
X0023795Y0091070D01*
X0023663Y0091002D01*
X0023529Y0090937D01*
X0023393Y0090876D01*
X0023255Y0090819D01*
X0023117Y0090766D01*
X0022976Y0090716D01*
X0022835Y0090670D01*
X0022692Y0090628D01*
X0022548Y0090589D01*
X0022403Y0090555D01*
X0022258Y0090524D01*
X0022111Y0090498D01*
X0021964Y0090475D01*
X0021816Y0090456D01*
X0021668Y0090441D01*
X0021520Y0090430D01*
X0021371Y0090423D01*
X0021222Y0090420D01*
X0021073Y0090421D01*
X0020925Y0090426D01*
X0020776Y0090435D01*
X0020628Y0090448D01*
X0020480Y0090465D01*
X0020332Y0090486D01*
X0020186Y0090510D01*
X0020039Y0090539D01*
X0019894Y0090572D01*
X0019750Y0090608D01*
X0019607Y0090648D01*
X0019464Y0090693D01*
X0019323Y0090740D01*
X0019184Y0090792D01*
X0019046Y0090847D01*
X0018909Y0090906D01*
X0018774Y0090969D01*
X0018641Y0091035D01*
X0018509Y0091105D01*
X0018380Y0091178D01*
X0018252Y0091255D01*
X0018126Y0091335D01*
X0018003Y0091419D01*
X0017882Y0091505D01*
X0017764Y0091595D01*
X0017647Y0091688D01*
X0017534Y0091784D01*
X0017423Y0091884D01*
X0017314Y0091986D01*
X0017209Y0092091D01*
X0017106Y0092198D01*
X0017006Y0092309D01*
X0016909Y0092422D01*
X0016815Y0092537D01*
X0016725Y0092655D01*
X0016637Y0092776D01*
X0016553Y0092898D01*
X0016472Y0093023D01*
X0016394Y0093150D01*
X0016320Y0093280D01*
X0016249Y0093411D01*
X0016182Y0093543D01*
X0016119Y0093678D01*
X0016059Y0093814D01*
X0016003Y0093952D01*
X0015950Y0094091D01*
X0015901Y0094232D01*
X0015856Y0094374D01*
X0015815Y0094517D01*
X0015777Y0094661D01*
X0015744Y0094806D01*
X0015714Y0094952D01*
X0015688Y0095099D01*
X0015667Y0095246D01*
X0015649Y0095394D01*
X0015635Y0095542D01*
X0015625Y0095690D01*
X0015619Y0095839D01*
X0015617Y0095988D01*
X0054554Y0090280D02*
X0054554Y0088835D01*
X0054556Y0088790D01*
X0054561Y0088745D01*
X0054570Y0088700D01*
X0054582Y0088656D01*
X0054598Y0088614D01*
X0054617Y0088573D01*
X0054639Y0088533D01*
X0054664Y0088495D01*
X0054692Y0088460D01*
X0054723Y0088426D01*
X0054757Y0088395D01*
X0054792Y0088367D01*
X0054830Y0088342D01*
X0054870Y0088320D01*
X0054911Y0088301D01*
X0054953Y0088285D01*
X0054997Y0088273D01*
X0055042Y0088264D01*
X0055087Y0088259D01*
X0055132Y0088257D01*
X0055710Y0088257D01*
X0056968Y0088257D02*
X0057690Y0088257D01*
X0057690Y0088258D02*
X0057743Y0088260D01*
X0057795Y0088266D01*
X0057847Y0088275D01*
X0057898Y0088289D01*
X0057948Y0088306D01*
X0057996Y0088326D01*
X0058043Y0088350D01*
X0058088Y0088378D01*
X0058131Y0088409D01*
X0058172Y0088442D01*
X0058210Y0088479D01*
X0058245Y0088518D01*
X0058277Y0088560D01*
X0058306Y0088604D01*
X0058332Y0088650D01*
X0058354Y0088698D01*
X0058373Y0088747D01*
X0058389Y0088797D01*
X0058400Y0088849D01*
X0058408Y0088901D01*
X0058412Y0088954D01*
X0058412Y0089006D01*
X0058408Y0089059D01*
X0058400Y0089111D01*
X0058389Y0089163D01*
X0058373Y0089213D01*
X0058354Y0089262D01*
X0058332Y0089310D01*
X0058306Y0089356D01*
X0058277Y0089400D01*
X0058245Y0089442D01*
X0058210Y0089481D01*
X0058172Y0089518D01*
X0058131Y0089551D01*
X0058088Y0089582D01*
X0058043Y0089610D01*
X0057996Y0089634D01*
X0057948Y0089654D01*
X0057898Y0089671D01*
X0057847Y0089685D01*
X0057795Y0089694D01*
X0057743Y0089700D01*
X0057690Y0089702D01*
X0057835Y0089702D02*
X0057257Y0089702D01*
X0057835Y0089702D02*
X0057882Y0089704D01*
X0057928Y0089709D01*
X0057973Y0089719D01*
X0058018Y0089732D01*
X0058062Y0089748D01*
X0058104Y0089768D01*
X0058144Y0089791D01*
X0058182Y0089818D01*
X0058218Y0089847D01*
X0058252Y0089880D01*
X0058283Y0089914D01*
X0058311Y0089952D01*
X0058336Y0089991D01*
X0058357Y0090032D01*
X0058375Y0090075D01*
X0058390Y0090119D01*
X0058401Y0090164D01*
X0058409Y0090210D01*
X0058413Y0090257D01*
X0058413Y0090303D01*
X0058409Y0090350D01*
X0058401Y0090396D01*
X0058390Y0090441D01*
X0058375Y0090485D01*
X0058357Y0090528D01*
X0058336Y0090569D01*
X0058311Y0090608D01*
X0058283Y0090646D01*
X0058252Y0090680D01*
X0058218Y0090713D01*
X0058182Y0090742D01*
X0058144Y0090769D01*
X0058104Y0090792D01*
X0058062Y0090812D01*
X0058018Y0090828D01*
X0057973Y0090841D01*
X0057928Y0090851D01*
X0057882Y0090856D01*
X0057835Y0090858D01*
X0057835Y0090857D02*
X0056968Y0090857D01*
X0055710Y0090857D02*
X0055132Y0090857D01*
X0055132Y0090858D02*
X0055084Y0090856D01*
X0055037Y0090850D01*
X0054990Y0090840D01*
X0054944Y0090827D01*
X0054900Y0090809D01*
X0054857Y0090788D01*
X0054816Y0090764D01*
X0054777Y0090736D01*
X0054741Y0090705D01*
X0054707Y0090671D01*
X0054676Y0090635D01*
X0054648Y0090596D01*
X0054624Y0090555D01*
X0054603Y0090512D01*
X0054585Y0090468D01*
X0054572Y0090422D01*
X0054562Y0090375D01*
X0054556Y0090328D01*
X0054554Y0090280D01*
X0085946Y0093984D02*
X0085946Y0095429D01*
X0085945Y0095429D02*
X0085947Y0095477D01*
X0085953Y0095524D01*
X0085963Y0095571D01*
X0085976Y0095617D01*
X0085994Y0095661D01*
X0086015Y0095704D01*
X0086039Y0095745D01*
X0086067Y0095784D01*
X0086098Y0095820D01*
X0086132Y0095854D01*
X0086168Y0095885D01*
X0086207Y0095913D01*
X0086248Y0095937D01*
X0086291Y0095958D01*
X0086335Y0095976D01*
X0086381Y0095989D01*
X0086428Y0095999D01*
X0086475Y0096005D01*
X0086523Y0096007D01*
X0086523Y0096006D02*
X0087101Y0096006D01*
X0088937Y0096006D02*
X0088360Y0093984D01*
X0089804Y0093984D01*
X0089371Y0094562D02*
X0089371Y0093406D01*
X0087101Y0093406D02*
X0086523Y0093406D01*
X0086478Y0093408D01*
X0086433Y0093413D01*
X0086388Y0093422D01*
X0086344Y0093434D01*
X0086302Y0093450D01*
X0086261Y0093469D01*
X0086221Y0093491D01*
X0086183Y0093516D01*
X0086148Y0093544D01*
X0086114Y0093575D01*
X0086083Y0093609D01*
X0086055Y0093644D01*
X0086030Y0093682D01*
X0086008Y0093722D01*
X0085989Y0093763D01*
X0085973Y0093805D01*
X0085961Y0093849D01*
X0085952Y0093894D01*
X0085947Y0093939D01*
X0085945Y0093984D01*
X0091067Y0030117D02*
X0091645Y0030117D01*
X0091067Y0030117D02*
X0091019Y0030115D01*
X0090972Y0030109D01*
X0090925Y0030099D01*
X0090879Y0030086D01*
X0090835Y0030068D01*
X0090792Y0030047D01*
X0090751Y0030023D01*
X0090712Y0029995D01*
X0090676Y0029964D01*
X0090642Y0029930D01*
X0090611Y0029894D01*
X0090583Y0029855D01*
X0090559Y0029814D01*
X0090538Y0029771D01*
X0090520Y0029727D01*
X0090507Y0029681D01*
X0090497Y0029634D01*
X0090491Y0029587D01*
X0090489Y0029539D01*
X0090489Y0028094D01*
X0090491Y0028049D01*
X0090496Y0028004D01*
X0090505Y0027959D01*
X0090517Y0027915D01*
X0090533Y0027873D01*
X0090552Y0027832D01*
X0090574Y0027792D01*
X0090599Y0027754D01*
X0090627Y0027719D01*
X0090658Y0027685D01*
X0090692Y0027654D01*
X0090727Y0027626D01*
X0090765Y0027601D01*
X0090805Y0027579D01*
X0090846Y0027560D01*
X0090888Y0027544D01*
X0090932Y0027532D01*
X0090977Y0027523D01*
X0091022Y0027518D01*
X0091067Y0027516D01*
X0091067Y0027517D02*
X0091645Y0027517D01*
X0092903Y0027517D02*
X0093770Y0027517D01*
X0093770Y0027516D02*
X0093818Y0027518D01*
X0093865Y0027524D01*
X0093912Y0027534D01*
X0093958Y0027547D01*
X0094002Y0027565D01*
X0094045Y0027586D01*
X0094086Y0027610D01*
X0094125Y0027638D01*
X0094161Y0027669D01*
X0094195Y0027703D01*
X0094226Y0027739D01*
X0094254Y0027778D01*
X0094278Y0027819D01*
X0094299Y0027862D01*
X0094317Y0027906D01*
X0094330Y0027952D01*
X0094340Y0027999D01*
X0094346Y0028046D01*
X0094348Y0028094D01*
X0094347Y0028094D02*
X0094347Y0028383D01*
X0094348Y0028383D02*
X0094346Y0028428D01*
X0094341Y0028473D01*
X0094332Y0028518D01*
X0094320Y0028562D01*
X0094304Y0028604D01*
X0094285Y0028645D01*
X0094263Y0028685D01*
X0094238Y0028723D01*
X0094210Y0028758D01*
X0094179Y0028792D01*
X0094145Y0028823D01*
X0094110Y0028851D01*
X0094072Y0028876D01*
X0094032Y0028898D01*
X0093991Y0028917D01*
X0093949Y0028933D01*
X0093905Y0028945D01*
X0093860Y0028954D01*
X0093815Y0028959D01*
X0093770Y0028961D01*
X0092903Y0028961D01*
X0092903Y0030117D01*
X0094347Y0030117D01*
D12*
X0036783Y0044957D02*
X0033883Y0044957D01*
X0033883Y0045763D01*
X0033885Y0045818D01*
X0033891Y0045873D01*
X0033900Y0045927D01*
X0033913Y0045980D01*
X0033930Y0046033D01*
X0033950Y0046084D01*
X0033973Y0046134D01*
X0034000Y0046182D01*
X0034031Y0046228D01*
X0034064Y0046272D01*
X0034100Y0046313D01*
X0034139Y0046352D01*
X0034180Y0046388D01*
X0034224Y0046421D01*
X0034270Y0046452D01*
X0034318Y0046479D01*
X0034368Y0046502D01*
X0034419Y0046522D01*
X0034472Y0046539D01*
X0034525Y0046552D01*
X0034579Y0046561D01*
X0034634Y0046567D01*
X0034689Y0046569D01*
X0034744Y0046567D01*
X0034799Y0046561D01*
X0034853Y0046552D01*
X0034906Y0046539D01*
X0034959Y0046522D01*
X0035010Y0046502D01*
X0035060Y0046479D01*
X0035108Y0046452D01*
X0035154Y0046421D01*
X0035198Y0046388D01*
X0035239Y0046352D01*
X0035278Y0046313D01*
X0035314Y0046272D01*
X0035347Y0046228D01*
X0035378Y0046182D01*
X0035405Y0046134D01*
X0035428Y0046084D01*
X0035448Y0046033D01*
X0035465Y0045980D01*
X0035478Y0045927D01*
X0035487Y0045873D01*
X0035493Y0045818D01*
X0035495Y0045763D01*
X0035494Y0045763D02*
X0035494Y0044957D01*
X0035494Y0045924D02*
X0036783Y0046568D01*
X0036300Y0047786D02*
X0035494Y0047786D01*
X0035816Y0047786D02*
X0035816Y0049075D01*
X0035494Y0049075D01*
X0035494Y0049074D02*
X0035445Y0049072D01*
X0035396Y0049066D01*
X0035347Y0049057D01*
X0035300Y0049044D01*
X0035253Y0049027D01*
X0035208Y0049007D01*
X0035165Y0048984D01*
X0035123Y0048957D01*
X0035084Y0048927D01*
X0035047Y0048894D01*
X0035013Y0048858D01*
X0034982Y0048820D01*
X0034953Y0048780D01*
X0034928Y0048738D01*
X0034906Y0048693D01*
X0034888Y0048648D01*
X0034873Y0048601D01*
X0034862Y0048553D01*
X0034854Y0048504D01*
X0034850Y0048455D01*
X0034850Y0048405D01*
X0034854Y0048356D01*
X0034862Y0048307D01*
X0034873Y0048259D01*
X0034888Y0048212D01*
X0034906Y0048167D01*
X0034928Y0048122D01*
X0034953Y0048080D01*
X0034982Y0048040D01*
X0035013Y0048002D01*
X0035047Y0047966D01*
X0035084Y0047933D01*
X0035123Y0047903D01*
X0035165Y0047876D01*
X0035208Y0047853D01*
X0035253Y0047833D01*
X0035300Y0047816D01*
X0035347Y0047803D01*
X0035396Y0047794D01*
X0035445Y0047788D01*
X0035494Y0047786D01*
X0036300Y0047786D02*
X0036342Y0047788D01*
X0036384Y0047793D01*
X0036425Y0047802D01*
X0036465Y0047815D01*
X0036504Y0047831D01*
X0036542Y0047851D01*
X0036577Y0047873D01*
X0036610Y0047899D01*
X0036642Y0047927D01*
X0036670Y0047959D01*
X0036696Y0047992D01*
X0036718Y0048028D01*
X0036738Y0048065D01*
X0036754Y0048104D01*
X0036767Y0048144D01*
X0036776Y0048185D01*
X0036781Y0048227D01*
X0036783Y0048269D01*
X0036783Y0049075D01*
X0036783Y0050830D02*
X0034850Y0051475D01*
X0034850Y0050186D02*
X0036783Y0050830D01*
X0036783Y0052478D02*
X0036783Y0052639D01*
X0036622Y0052639D01*
X0036622Y0052478D01*
X0036783Y0052478D01*
X0036783Y0055305D02*
X0036783Y0056916D01*
X0036783Y0056110D02*
X0033883Y0056110D01*
X0034528Y0055305D01*
X0031983Y0055623D02*
X0031983Y0054818D01*
X0031981Y0054776D01*
X0031976Y0054734D01*
X0031967Y0054693D01*
X0031954Y0054653D01*
X0031938Y0054614D01*
X0031918Y0054577D01*
X0031896Y0054541D01*
X0031870Y0054508D01*
X0031842Y0054476D01*
X0031810Y0054448D01*
X0031777Y0054422D01*
X0031742Y0054400D01*
X0031704Y0054380D01*
X0031665Y0054364D01*
X0031625Y0054351D01*
X0031584Y0054342D01*
X0031542Y0054337D01*
X0031500Y0054335D01*
X0031500Y0054334D02*
X0030050Y0054334D01*
X0030050Y0055623D02*
X0031983Y0055623D01*
X0031500Y0056959D02*
X0029083Y0056959D01*
X0030050Y0058366D02*
X0031983Y0059011D01*
X0032950Y0058688D02*
X0032950Y0058366D01*
X0032950Y0058688D02*
X0030050Y0059655D01*
X0029083Y0060547D02*
X0028439Y0060547D01*
X0027666Y0060067D02*
X0023800Y0060067D01*
X0024283Y0057193D02*
X0027183Y0057193D01*
X0025894Y0056227D02*
X0024283Y0057193D01*
X0025894Y0056227D02*
X0024283Y0055260D01*
X0027183Y0055260D01*
X0026378Y0053864D02*
X0025089Y0053864D01*
X0025089Y0053865D02*
X0025034Y0053863D01*
X0024979Y0053857D01*
X0024925Y0053848D01*
X0024872Y0053835D01*
X0024819Y0053818D01*
X0024768Y0053798D01*
X0024718Y0053775D01*
X0024670Y0053748D01*
X0024624Y0053717D01*
X0024580Y0053684D01*
X0024539Y0053648D01*
X0024500Y0053609D01*
X0024464Y0053568D01*
X0024431Y0053524D01*
X0024400Y0053478D01*
X0024373Y0053430D01*
X0024350Y0053380D01*
X0024330Y0053329D01*
X0024313Y0053276D01*
X0024300Y0053223D01*
X0024291Y0053169D01*
X0024285Y0053114D01*
X0024283Y0053059D01*
X0024285Y0053004D01*
X0024291Y0052949D01*
X0024300Y0052895D01*
X0024313Y0052842D01*
X0024330Y0052789D01*
X0024350Y0052738D01*
X0024373Y0052688D01*
X0024400Y0052640D01*
X0024431Y0052594D01*
X0024464Y0052550D01*
X0024500Y0052509D01*
X0024539Y0052470D01*
X0024580Y0052434D01*
X0024624Y0052401D01*
X0024670Y0052370D01*
X0024718Y0052343D01*
X0024768Y0052320D01*
X0024819Y0052300D01*
X0024872Y0052283D01*
X0024925Y0052270D01*
X0024979Y0052261D01*
X0025034Y0052255D01*
X0025089Y0052253D01*
X0026378Y0052253D01*
X0026433Y0052255D01*
X0026488Y0052261D01*
X0026542Y0052270D01*
X0026595Y0052283D01*
X0026648Y0052300D01*
X0026699Y0052320D01*
X0026749Y0052343D01*
X0026797Y0052370D01*
X0026843Y0052401D01*
X0026887Y0052434D01*
X0026928Y0052470D01*
X0026967Y0052509D01*
X0027003Y0052550D01*
X0027036Y0052594D01*
X0027067Y0052640D01*
X0027094Y0052688D01*
X0027117Y0052738D01*
X0027137Y0052789D01*
X0027154Y0052842D01*
X0027167Y0052895D01*
X0027176Y0052949D01*
X0027182Y0053004D01*
X0027184Y0053059D01*
X0027182Y0053114D01*
X0027176Y0053169D01*
X0027167Y0053223D01*
X0027154Y0053276D01*
X0027137Y0053329D01*
X0027117Y0053380D01*
X0027094Y0053430D01*
X0027067Y0053478D01*
X0027036Y0053524D01*
X0027003Y0053568D01*
X0026967Y0053609D01*
X0026928Y0053648D01*
X0026887Y0053684D01*
X0026843Y0053717D01*
X0026797Y0053748D01*
X0026749Y0053775D01*
X0026699Y0053798D01*
X0026648Y0053818D01*
X0026595Y0053835D01*
X0026542Y0053848D01*
X0026488Y0053857D01*
X0026433Y0053863D01*
X0026378Y0053865D01*
X0029083Y0052917D02*
X0031339Y0052917D01*
X0031339Y0052916D02*
X0031387Y0052914D01*
X0031435Y0052909D01*
X0031482Y0052900D01*
X0031529Y0052887D01*
X0031574Y0052871D01*
X0031618Y0052852D01*
X0031661Y0052830D01*
X0031702Y0052804D01*
X0031741Y0052775D01*
X0031777Y0052744D01*
X0031811Y0052710D01*
X0031842Y0052674D01*
X0031871Y0052635D01*
X0031897Y0052594D01*
X0031919Y0052551D01*
X0031938Y0052507D01*
X0031954Y0052462D01*
X0031967Y0052415D01*
X0031976Y0052368D01*
X0031981Y0052320D01*
X0031983Y0052272D01*
X0031983Y0051950D01*
X0031339Y0049448D02*
X0031339Y0047837D01*
X0029083Y0048482D01*
X0027183Y0048389D02*
X0027183Y0047744D01*
X0027183Y0048067D02*
X0024283Y0048067D01*
X0024283Y0048389D02*
X0024283Y0047744D01*
X0025089Y0046568D02*
X0026378Y0046568D01*
X0026378Y0046569D02*
X0026433Y0046567D01*
X0026488Y0046561D01*
X0026542Y0046552D01*
X0026595Y0046539D01*
X0026648Y0046522D01*
X0026699Y0046502D01*
X0026749Y0046479D01*
X0026797Y0046452D01*
X0026843Y0046421D01*
X0026887Y0046388D01*
X0026928Y0046352D01*
X0026967Y0046313D01*
X0027003Y0046272D01*
X0027036Y0046228D01*
X0027067Y0046182D01*
X0027094Y0046134D01*
X0027117Y0046084D01*
X0027137Y0046033D01*
X0027154Y0045980D01*
X0027167Y0045927D01*
X0027176Y0045873D01*
X0027182Y0045818D01*
X0027184Y0045763D01*
X0027182Y0045708D01*
X0027176Y0045653D01*
X0027167Y0045599D01*
X0027154Y0045546D01*
X0027137Y0045493D01*
X0027117Y0045442D01*
X0027094Y0045392D01*
X0027067Y0045344D01*
X0027036Y0045298D01*
X0027003Y0045254D01*
X0026967Y0045213D01*
X0026928Y0045174D01*
X0026887Y0045138D01*
X0026843Y0045105D01*
X0026797Y0045074D01*
X0026749Y0045047D01*
X0026699Y0045024D01*
X0026648Y0045004D01*
X0026595Y0044987D01*
X0026542Y0044974D01*
X0026488Y0044965D01*
X0026433Y0044959D01*
X0026378Y0044957D01*
X0025089Y0044957D01*
X0025034Y0044959D01*
X0024979Y0044965D01*
X0024925Y0044974D01*
X0024872Y0044987D01*
X0024819Y0045004D01*
X0024768Y0045024D01*
X0024718Y0045047D01*
X0024670Y0045074D01*
X0024624Y0045105D01*
X0024580Y0045138D01*
X0024539Y0045174D01*
X0024500Y0045213D01*
X0024464Y0045254D01*
X0024431Y0045298D01*
X0024400Y0045344D01*
X0024373Y0045392D01*
X0024350Y0045442D01*
X0024330Y0045493D01*
X0024313Y0045546D01*
X0024300Y0045599D01*
X0024291Y0045653D01*
X0024285Y0045708D01*
X0024283Y0045763D01*
X0024285Y0045818D01*
X0024291Y0045873D01*
X0024300Y0045927D01*
X0024313Y0045980D01*
X0024330Y0046033D01*
X0024350Y0046084D01*
X0024373Y0046134D01*
X0024400Y0046182D01*
X0024431Y0046228D01*
X0024464Y0046272D01*
X0024500Y0046313D01*
X0024539Y0046352D01*
X0024580Y0046388D01*
X0024624Y0046421D01*
X0024670Y0046452D01*
X0024718Y0046479D01*
X0024768Y0046502D01*
X0024819Y0046522D01*
X0024872Y0046539D01*
X0024925Y0046552D01*
X0024979Y0046561D01*
X0025034Y0046567D01*
X0025089Y0046569D01*
X0024283Y0049469D02*
X0024283Y0051080D01*
X0027183Y0049469D01*
X0027183Y0051080D01*
X0030694Y0048965D02*
X0031983Y0048965D01*
X0031983Y0046568D02*
X0031983Y0044957D01*
X0030372Y0046327D01*
X0029083Y0045843D02*
X0029085Y0045784D01*
X0029090Y0045726D01*
X0029100Y0045668D01*
X0029112Y0045611D01*
X0029129Y0045555D01*
X0029148Y0045500D01*
X0029172Y0045446D01*
X0029198Y0045394D01*
X0029228Y0045344D01*
X0029261Y0045295D01*
X0029297Y0045249D01*
X0029336Y0045205D01*
X0029377Y0045164D01*
X0029421Y0045125D01*
X0029467Y0045089D01*
X0029516Y0045057D01*
X0029566Y0045027D01*
X0029618Y0045000D01*
X0029672Y0044977D01*
X0029727Y0044957D01*
X0030372Y0046327D02*
X0030335Y0046364D01*
X0030295Y0046398D01*
X0030253Y0046430D01*
X0030208Y0046458D01*
X0030162Y0046484D01*
X0030115Y0046506D01*
X0030066Y0046525D01*
X0030016Y0046541D01*
X0029965Y0046553D01*
X0029913Y0046562D01*
X0029861Y0046567D01*
X0029808Y0046569D01*
X0029808Y0046568D02*
X0029756Y0046566D01*
X0029705Y0046561D01*
X0029654Y0046551D01*
X0029604Y0046539D01*
X0029555Y0046522D01*
X0029507Y0046502D01*
X0029461Y0046479D01*
X0029416Y0046453D01*
X0029374Y0046423D01*
X0029333Y0046391D01*
X0029295Y0046356D01*
X0029260Y0046318D01*
X0029228Y0046277D01*
X0029198Y0046235D01*
X0029172Y0046190D01*
X0029149Y0046144D01*
X0029129Y0046096D01*
X0029112Y0046047D01*
X0029100Y0045997D01*
X0029090Y0045946D01*
X0029085Y0045895D01*
X0029083Y0045843D01*
X0031500Y0056959D02*
X0031542Y0056961D01*
X0031584Y0056966D01*
X0031625Y0056975D01*
X0031665Y0056988D01*
X0031704Y0057004D01*
X0031742Y0057024D01*
X0031777Y0057046D01*
X0031810Y0057072D01*
X0031842Y0057100D01*
X0031870Y0057132D01*
X0031896Y0057165D01*
X0031918Y0057201D01*
X0031938Y0057238D01*
X0031954Y0057277D01*
X0031967Y0057317D01*
X0031976Y0057358D01*
X0031981Y0057400D01*
X0031983Y0057442D01*
X0031983Y0061565D02*
X0031983Y0063176D01*
X0031983Y0062371D02*
X0029083Y0062371D01*
X0029728Y0061565D01*
X0027183Y0062652D02*
X0027183Y0064585D01*
X0024283Y0063619D01*
X0027183Y0062652D01*
X0029728Y0064607D02*
X0029777Y0064609D01*
X0029826Y0064615D01*
X0029875Y0064624D01*
X0029922Y0064637D01*
X0029969Y0064654D01*
X0030014Y0064674D01*
X0030057Y0064697D01*
X0030099Y0064724D01*
X0030138Y0064754D01*
X0030175Y0064787D01*
X0030209Y0064823D01*
X0030240Y0064861D01*
X0030269Y0064901D01*
X0030294Y0064943D01*
X0030316Y0064988D01*
X0030334Y0065033D01*
X0030349Y0065080D01*
X0030360Y0065128D01*
X0030368Y0065177D01*
X0030372Y0065226D01*
X0030372Y0065276D01*
X0030368Y0065325D01*
X0030360Y0065374D01*
X0030349Y0065422D01*
X0030334Y0065469D01*
X0030316Y0065514D01*
X0030294Y0065559D01*
X0030269Y0065601D01*
X0030240Y0065641D01*
X0030209Y0065679D01*
X0030175Y0065715D01*
X0030138Y0065748D01*
X0030099Y0065778D01*
X0030057Y0065805D01*
X0030014Y0065828D01*
X0029969Y0065848D01*
X0029922Y0065865D01*
X0029875Y0065878D01*
X0029826Y0065887D01*
X0029777Y0065893D01*
X0029728Y0065895D01*
X0029679Y0065893D01*
X0029630Y0065887D01*
X0029581Y0065878D01*
X0029534Y0065865D01*
X0029487Y0065848D01*
X0029442Y0065828D01*
X0029399Y0065805D01*
X0029357Y0065778D01*
X0029318Y0065748D01*
X0029281Y0065715D01*
X0029247Y0065679D01*
X0029216Y0065641D01*
X0029187Y0065601D01*
X0029162Y0065559D01*
X0029140Y0065514D01*
X0029122Y0065469D01*
X0029107Y0065422D01*
X0029096Y0065374D01*
X0029088Y0065325D01*
X0029084Y0065276D01*
X0029084Y0065226D01*
X0029088Y0065177D01*
X0029096Y0065128D01*
X0029107Y0065080D01*
X0029122Y0065033D01*
X0029140Y0064988D01*
X0029162Y0064943D01*
X0029187Y0064901D01*
X0029216Y0064861D01*
X0029247Y0064823D01*
X0029281Y0064787D01*
X0029318Y0064754D01*
X0029357Y0064724D01*
X0029399Y0064697D01*
X0029442Y0064674D01*
X0029487Y0064654D01*
X0029534Y0064637D01*
X0029581Y0064624D01*
X0029630Y0064615D01*
X0029679Y0064609D01*
X0029728Y0064607D01*
X0031178Y0064445D02*
X0031233Y0064447D01*
X0031288Y0064453D01*
X0031342Y0064462D01*
X0031395Y0064475D01*
X0031448Y0064492D01*
X0031499Y0064512D01*
X0031549Y0064535D01*
X0031597Y0064562D01*
X0031643Y0064593D01*
X0031687Y0064626D01*
X0031728Y0064662D01*
X0031767Y0064701D01*
X0031803Y0064742D01*
X0031836Y0064786D01*
X0031867Y0064832D01*
X0031894Y0064880D01*
X0031917Y0064930D01*
X0031937Y0064981D01*
X0031954Y0065034D01*
X0031967Y0065087D01*
X0031976Y0065141D01*
X0031982Y0065196D01*
X0031984Y0065251D01*
X0031982Y0065306D01*
X0031976Y0065361D01*
X0031967Y0065415D01*
X0031954Y0065468D01*
X0031937Y0065521D01*
X0031917Y0065572D01*
X0031894Y0065622D01*
X0031867Y0065670D01*
X0031836Y0065716D01*
X0031803Y0065760D01*
X0031767Y0065801D01*
X0031728Y0065840D01*
X0031687Y0065876D01*
X0031643Y0065909D01*
X0031597Y0065940D01*
X0031549Y0065967D01*
X0031499Y0065990D01*
X0031448Y0066010D01*
X0031395Y0066027D01*
X0031342Y0066040D01*
X0031288Y0066049D01*
X0031233Y0066055D01*
X0031178Y0066057D01*
X0031123Y0066055D01*
X0031068Y0066049D01*
X0031014Y0066040D01*
X0030961Y0066027D01*
X0030908Y0066010D01*
X0030857Y0065990D01*
X0030807Y0065967D01*
X0030759Y0065940D01*
X0030713Y0065909D01*
X0030669Y0065876D01*
X0030628Y0065840D01*
X0030589Y0065801D01*
X0030553Y0065760D01*
X0030520Y0065716D01*
X0030489Y0065670D01*
X0030462Y0065622D01*
X0030439Y0065572D01*
X0030419Y0065521D01*
X0030402Y0065468D01*
X0030389Y0065415D01*
X0030380Y0065361D01*
X0030374Y0065306D01*
X0030372Y0065251D01*
X0030374Y0065196D01*
X0030380Y0065141D01*
X0030389Y0065087D01*
X0030402Y0065034D01*
X0030419Y0064981D01*
X0030439Y0064930D01*
X0030462Y0064880D01*
X0030489Y0064832D01*
X0030520Y0064786D01*
X0030553Y0064742D01*
X0030589Y0064701D01*
X0030628Y0064662D01*
X0030669Y0064626D01*
X0030713Y0064593D01*
X0030759Y0064562D01*
X0030807Y0064535D01*
X0030857Y0064512D01*
X0030908Y0064492D01*
X0030961Y0064475D01*
X0031014Y0064462D01*
X0031068Y0064453D01*
X0031123Y0064447D01*
X0031178Y0064445D01*
X0027183Y0065720D02*
X0025733Y0066365D01*
X0024283Y0065720D01*
X0024283Y0067331D01*
X0027183Y0067331D02*
X0027183Y0065720D01*
D13*
X0030240Y0039295D02*
X0035752Y0039295D01*
X0035752Y0026697D01*
X0030240Y0026697D01*
X0030240Y0039295D01*
X0038114Y0039295D02*
X0043626Y0039295D01*
X0043626Y0026697D01*
X0038114Y0026697D01*
X0038114Y0039295D01*
X0045988Y0039295D02*
X0051500Y0039295D01*
X0051500Y0026697D01*
X0045988Y0026697D01*
X0045988Y0039295D01*
X0053862Y0039295D02*
X0059374Y0039295D01*
X0059374Y0026697D01*
X0053862Y0026697D01*
X0053862Y0039295D01*
X0061736Y0039295D02*
X0067248Y0039295D01*
X0067248Y0026697D01*
X0061736Y0026697D01*
X0061736Y0039295D01*
X0069610Y0039295D02*
X0075122Y0039295D01*
X0075122Y0026697D01*
X0069610Y0026697D01*
X0069610Y0039295D01*
X0077878Y0044020D02*
X0077878Y0049531D01*
X0090476Y0049531D01*
X0090476Y0044020D01*
X0077878Y0044020D01*
X0080634Y0040083D02*
X0080634Y0025909D01*
X0087720Y0025909D01*
X0087720Y0040083D01*
X0080634Y0040083D01*
X0084571Y0077091D02*
X0084571Y0091264D01*
X0091657Y0091264D01*
X0091657Y0077091D01*
X0084571Y0077091D01*
X0075516Y0084571D02*
X0061343Y0084571D01*
X0061343Y0091657D01*
X0075516Y0091657D01*
X0075516Y0084571D01*
D14*
X0058613Y0085967D02*
X0057990Y0085967D01*
X0057990Y0086589D02*
X0058613Y0086589D01*
X0057990Y0086589D02*
X0057990Y0085189D01*
X0057247Y0085189D02*
X0057247Y0085889D01*
X0057246Y0085889D02*
X0057244Y0085919D01*
X0057238Y0085949D01*
X0057228Y0085978D01*
X0057215Y0086006D01*
X0057198Y0086031D01*
X0057178Y0086054D01*
X0057155Y0086074D01*
X0057129Y0086091D01*
X0057102Y0086104D01*
X0057073Y0086114D01*
X0057043Y0086120D01*
X0057013Y0086122D01*
X0056625Y0086122D01*
X0056625Y0085189D01*
X0055272Y0085383D02*
X0055245Y0085443D01*
X0055221Y0085504D01*
X0055201Y0085566D01*
X0055185Y0085630D01*
X0055172Y0085694D01*
X0055162Y0085758D01*
X0055157Y0085824D01*
X0055155Y0085889D01*
X0055933Y0085889D02*
X0055931Y0085954D01*
X0055926Y0086020D01*
X0055916Y0086084D01*
X0055903Y0086148D01*
X0055887Y0086212D01*
X0055867Y0086274D01*
X0055843Y0086335D01*
X0055816Y0086395D01*
X0055855Y0086278D02*
X0055233Y0085500D01*
X0055544Y0085189D02*
X0055576Y0085191D01*
X0055608Y0085196D01*
X0055640Y0085205D01*
X0055670Y0085218D01*
X0055698Y0085234D01*
X0055724Y0085252D01*
X0055748Y0085274D01*
X0055770Y0085298D01*
X0055789Y0085325D01*
X0055804Y0085354D01*
X0055816Y0085384D01*
X0055544Y0085189D02*
X0055512Y0085191D01*
X0055480Y0085196D01*
X0055448Y0085205D01*
X0055418Y0085218D01*
X0055390Y0085234D01*
X0055364Y0085252D01*
X0055340Y0085274D01*
X0055318Y0085298D01*
X0055299Y0085325D01*
X0055284Y0085354D01*
X0055272Y0085384D01*
X0055816Y0085383D02*
X0055843Y0085443D01*
X0055867Y0085504D01*
X0055887Y0085566D01*
X0055903Y0085630D01*
X0055916Y0085694D01*
X0055926Y0085758D01*
X0055931Y0085824D01*
X0055933Y0085889D01*
X0055154Y0085889D02*
X0055156Y0085954D01*
X0055161Y0086020D01*
X0055171Y0086084D01*
X0055184Y0086148D01*
X0055200Y0086212D01*
X0055220Y0086274D01*
X0055244Y0086335D01*
X0055271Y0086395D01*
X0055544Y0086589D02*
X0055576Y0086587D01*
X0055608Y0086582D01*
X0055640Y0086573D01*
X0055670Y0086560D01*
X0055698Y0086544D01*
X0055724Y0086526D01*
X0055748Y0086504D01*
X0055770Y0086480D01*
X0055789Y0086453D01*
X0055804Y0086424D01*
X0055816Y0086394D01*
X0055544Y0086589D02*
X0055512Y0086587D01*
X0055480Y0086582D01*
X0055448Y0086573D01*
X0055418Y0086560D01*
X0055390Y0086544D01*
X0055364Y0086526D01*
X0055340Y0086504D01*
X0055318Y0086480D01*
X0055299Y0086453D01*
X0055284Y0086424D01*
X0055272Y0086394D01*
X0054181Y0086589D02*
X0054215Y0086587D01*
X0054248Y0086582D01*
X0054280Y0086573D01*
X0054312Y0086560D01*
X0054341Y0086544D01*
X0054369Y0086526D01*
X0054395Y0086504D01*
X0054418Y0086479D01*
X0054438Y0086453D01*
X0054456Y0086424D01*
X0054470Y0086393D01*
X0054481Y0086361D01*
X0054488Y0086328D01*
X0054492Y0086295D01*
X0054492Y0086261D01*
X0054488Y0086228D01*
X0054481Y0086195D01*
X0054470Y0086163D01*
X0054456Y0086132D01*
X0054438Y0086103D01*
X0054418Y0086077D01*
X0054395Y0086052D01*
X0054369Y0086030D01*
X0054341Y0086012D01*
X0054312Y0085996D01*
X0054280Y0085983D01*
X0054248Y0085974D01*
X0054215Y0085969D01*
X0054181Y0085967D01*
X0053870Y0085967D01*
X0054104Y0085967D02*
X0054142Y0085965D01*
X0054180Y0085960D01*
X0054217Y0085950D01*
X0054253Y0085937D01*
X0054287Y0085921D01*
X0054320Y0085901D01*
X0054351Y0085879D01*
X0054379Y0085853D01*
X0054405Y0085825D01*
X0054427Y0085794D01*
X0054447Y0085761D01*
X0054463Y0085727D01*
X0054476Y0085691D01*
X0054486Y0085654D01*
X0054491Y0085616D01*
X0054493Y0085578D01*
X0054491Y0085540D01*
X0054486Y0085502D01*
X0054476Y0085465D01*
X0054463Y0085429D01*
X0054447Y0085395D01*
X0054427Y0085362D01*
X0054405Y0085331D01*
X0054379Y0085303D01*
X0054351Y0085277D01*
X0054320Y0085255D01*
X0054287Y0085235D01*
X0054253Y0085219D01*
X0054217Y0085206D01*
X0054180Y0085196D01*
X0054142Y0085191D01*
X0054104Y0085189D01*
X0053715Y0085189D01*
X0052664Y0085189D02*
X0052275Y0085189D01*
X0052664Y0085189D02*
X0052702Y0085191D01*
X0052740Y0085196D01*
X0052777Y0085206D01*
X0052813Y0085219D01*
X0052847Y0085235D01*
X0052880Y0085255D01*
X0052911Y0085277D01*
X0052939Y0085303D01*
X0052965Y0085331D01*
X0052987Y0085362D01*
X0053007Y0085395D01*
X0053023Y0085429D01*
X0053036Y0085465D01*
X0053046Y0085502D01*
X0053051Y0085540D01*
X0053053Y0085578D01*
X0053051Y0085616D01*
X0053046Y0085654D01*
X0053036Y0085691D01*
X0053023Y0085727D01*
X0053007Y0085761D01*
X0052987Y0085794D01*
X0052965Y0085825D01*
X0052939Y0085853D01*
X0052911Y0085879D01*
X0052880Y0085901D01*
X0052847Y0085921D01*
X0052813Y0085937D01*
X0052777Y0085950D01*
X0052740Y0085960D01*
X0052702Y0085965D01*
X0052664Y0085967D01*
X0052741Y0085967D02*
X0052430Y0085967D01*
X0052741Y0085967D02*
X0052775Y0085969D01*
X0052808Y0085974D01*
X0052840Y0085983D01*
X0052872Y0085996D01*
X0052901Y0086012D01*
X0052929Y0086030D01*
X0052955Y0086052D01*
X0052978Y0086077D01*
X0052998Y0086103D01*
X0053016Y0086132D01*
X0053030Y0086163D01*
X0053041Y0086195D01*
X0053048Y0086228D01*
X0053052Y0086261D01*
X0053052Y0086295D01*
X0053048Y0086328D01*
X0053041Y0086361D01*
X0053030Y0086393D01*
X0053016Y0086424D01*
X0052998Y0086453D01*
X0052978Y0086479D01*
X0052955Y0086504D01*
X0052929Y0086526D01*
X0052901Y0086544D01*
X0052872Y0086560D01*
X0052840Y0086573D01*
X0052808Y0086582D01*
X0052775Y0086587D01*
X0052741Y0086589D01*
X0052275Y0086589D01*
X0053715Y0086589D02*
X0054181Y0086589D01*
X0091277Y0048576D02*
X0091888Y0048576D01*
X0091277Y0048576D02*
X0091277Y0046376D01*
X0091277Y0047353D02*
X0091888Y0047353D01*
X0092010Y0047353D02*
X0092499Y0046376D01*
X0091888Y0047353D02*
X0091936Y0047355D01*
X0091984Y0047361D01*
X0092031Y0047370D01*
X0092077Y0047383D01*
X0092122Y0047400D01*
X0092165Y0047420D01*
X0092207Y0047443D01*
X0092247Y0047470D01*
X0092285Y0047499D01*
X0092320Y0047532D01*
X0092353Y0047567D01*
X0092382Y0047605D01*
X0092409Y0047645D01*
X0092432Y0047687D01*
X0092452Y0047730D01*
X0092469Y0047775D01*
X0092482Y0047821D01*
X0092491Y0047868D01*
X0092497Y0047916D01*
X0092499Y0047964D01*
X0092497Y0048012D01*
X0092491Y0048060D01*
X0092482Y0048107D01*
X0092469Y0048153D01*
X0092452Y0048198D01*
X0092432Y0048241D01*
X0092409Y0048283D01*
X0092382Y0048323D01*
X0092353Y0048361D01*
X0092320Y0048396D01*
X0092285Y0048429D01*
X0092247Y0048458D01*
X0092207Y0048485D01*
X0092165Y0048508D01*
X0092122Y0048528D01*
X0092077Y0048545D01*
X0092031Y0048558D01*
X0091984Y0048567D01*
X0091936Y0048573D01*
X0091888Y0048575D01*
X0093545Y0048087D02*
X0093547Y0048044D01*
X0093552Y0048002D01*
X0093562Y0047960D01*
X0093574Y0047920D01*
X0093591Y0047880D01*
X0093611Y0047843D01*
X0093633Y0047807D01*
X0093659Y0047773D01*
X0093688Y0047741D01*
X0093720Y0047712D01*
X0093754Y0047686D01*
X0093790Y0047664D01*
X0093827Y0047644D01*
X0093867Y0047627D01*
X0093907Y0047615D01*
X0093949Y0047605D01*
X0093991Y0047600D01*
X0094034Y0047598D01*
X0094077Y0047600D01*
X0094119Y0047605D01*
X0094161Y0047615D01*
X0094201Y0047627D01*
X0094241Y0047644D01*
X0094279Y0047664D01*
X0094314Y0047686D01*
X0094348Y0047712D01*
X0094380Y0047741D01*
X0094409Y0047773D01*
X0094435Y0047807D01*
X0094457Y0047843D01*
X0094477Y0047880D01*
X0094494Y0047920D01*
X0094506Y0047960D01*
X0094516Y0048002D01*
X0094521Y0048044D01*
X0094523Y0048087D01*
X0094521Y0048130D01*
X0094516Y0048172D01*
X0094506Y0048214D01*
X0094494Y0048254D01*
X0094477Y0048294D01*
X0094457Y0048332D01*
X0094435Y0048367D01*
X0094409Y0048401D01*
X0094380Y0048433D01*
X0094348Y0048462D01*
X0094314Y0048488D01*
X0094279Y0048510D01*
X0094241Y0048530D01*
X0094201Y0048547D01*
X0094161Y0048559D01*
X0094119Y0048569D01*
X0094077Y0048574D01*
X0094034Y0048576D01*
X0093991Y0048574D01*
X0093949Y0048569D01*
X0093907Y0048559D01*
X0093867Y0048547D01*
X0093827Y0048530D01*
X0093790Y0048510D01*
X0093754Y0048488D01*
X0093720Y0048462D01*
X0093688Y0048433D01*
X0093659Y0048401D01*
X0093633Y0048367D01*
X0093611Y0048332D01*
X0093591Y0048294D01*
X0093574Y0048254D01*
X0093562Y0048214D01*
X0093552Y0048172D01*
X0093547Y0048130D01*
X0093545Y0048087D01*
X0093423Y0046987D02*
X0093425Y0046939D01*
X0093431Y0046891D01*
X0093440Y0046844D01*
X0093453Y0046798D01*
X0093470Y0046753D01*
X0093490Y0046710D01*
X0093513Y0046668D01*
X0093540Y0046628D01*
X0093569Y0046590D01*
X0093602Y0046555D01*
X0093637Y0046522D01*
X0093675Y0046493D01*
X0093715Y0046466D01*
X0093757Y0046443D01*
X0093800Y0046423D01*
X0093845Y0046406D01*
X0093891Y0046393D01*
X0093938Y0046384D01*
X0093986Y0046378D01*
X0094034Y0046376D01*
X0094082Y0046378D01*
X0094130Y0046384D01*
X0094177Y0046393D01*
X0094223Y0046406D01*
X0094268Y0046423D01*
X0094311Y0046443D01*
X0094353Y0046466D01*
X0094393Y0046493D01*
X0094431Y0046522D01*
X0094466Y0046555D01*
X0094499Y0046590D01*
X0094528Y0046628D01*
X0094555Y0046668D01*
X0094578Y0046710D01*
X0094598Y0046753D01*
X0094615Y0046798D01*
X0094628Y0046844D01*
X0094637Y0046891D01*
X0094643Y0046939D01*
X0094645Y0046987D01*
X0094643Y0047035D01*
X0094637Y0047083D01*
X0094628Y0047130D01*
X0094615Y0047176D01*
X0094598Y0047221D01*
X0094578Y0047264D01*
X0094555Y0047306D01*
X0094528Y0047346D01*
X0094499Y0047384D01*
X0094466Y0047419D01*
X0094431Y0047452D01*
X0094393Y0047481D01*
X0094353Y0047508D01*
X0094311Y0047531D01*
X0094268Y0047551D01*
X0094223Y0047568D01*
X0094177Y0047581D01*
X0094130Y0047590D01*
X0094082Y0047596D01*
X0094034Y0047598D01*
X0093986Y0047596D01*
X0093938Y0047590D01*
X0093891Y0047581D01*
X0093845Y0047568D01*
X0093800Y0047551D01*
X0093757Y0047531D01*
X0093715Y0047508D01*
X0093675Y0047481D01*
X0093637Y0047452D01*
X0093602Y0047419D01*
X0093569Y0047384D01*
X0093540Y0047346D01*
X0093513Y0047306D01*
X0093490Y0047264D01*
X0093470Y0047221D01*
X0093453Y0047176D01*
X0093440Y0047130D01*
X0093431Y0047083D01*
X0093425Y0047035D01*
X0093423Y0046987D01*
X0074166Y0025896D02*
X0074166Y0024674D01*
X0072944Y0025713D01*
X0071966Y0025346D02*
X0071968Y0025294D01*
X0071974Y0025242D01*
X0071983Y0025190D01*
X0071997Y0025140D01*
X0072014Y0025090D01*
X0072035Y0025042D01*
X0072059Y0024996D01*
X0072086Y0024952D01*
X0072117Y0024909D01*
X0072151Y0024869D01*
X0072187Y0024832D01*
X0072227Y0024798D01*
X0072269Y0024766D01*
X0072312Y0024738D01*
X0072358Y0024713D01*
X0072406Y0024691D01*
X0072455Y0024673D01*
X0072944Y0025713D02*
X0072910Y0025746D01*
X0072873Y0025776D01*
X0072833Y0025804D01*
X0072792Y0025828D01*
X0072749Y0025848D01*
X0072704Y0025865D01*
X0072658Y0025879D01*
X0072611Y0025888D01*
X0072564Y0025894D01*
X0072516Y0025896D01*
X0072471Y0025894D01*
X0072425Y0025888D01*
X0072381Y0025879D01*
X0072337Y0025866D01*
X0072295Y0025850D01*
X0072254Y0025830D01*
X0072215Y0025806D01*
X0072178Y0025780D01*
X0072143Y0025751D01*
X0072111Y0025719D01*
X0072082Y0025684D01*
X0072056Y0025647D01*
X0072032Y0025608D01*
X0072012Y0025567D01*
X0071996Y0025525D01*
X0071983Y0025481D01*
X0071974Y0025437D01*
X0071968Y0025391D01*
X0071966Y0025346D01*
X0071966Y0023139D02*
X0071966Y0022528D01*
X0074166Y0022528D01*
X0073188Y0022528D02*
X0073188Y0023139D01*
X0073188Y0023261D02*
X0074166Y0023750D01*
X0073188Y0023139D02*
X0073186Y0023187D01*
X0073180Y0023235D01*
X0073171Y0023282D01*
X0073158Y0023328D01*
X0073141Y0023373D01*
X0073121Y0023416D01*
X0073098Y0023458D01*
X0073071Y0023498D01*
X0073042Y0023536D01*
X0073009Y0023571D01*
X0072974Y0023604D01*
X0072936Y0023633D01*
X0072896Y0023660D01*
X0072854Y0023683D01*
X0072811Y0023703D01*
X0072766Y0023720D01*
X0072720Y0023733D01*
X0072673Y0023742D01*
X0072625Y0023748D01*
X0072577Y0023750D01*
X0072529Y0023748D01*
X0072481Y0023742D01*
X0072434Y0023733D01*
X0072388Y0023720D01*
X0072343Y0023703D01*
X0072300Y0023683D01*
X0072258Y0023660D01*
X0072218Y0023633D01*
X0072180Y0023604D01*
X0072145Y0023571D01*
X0072112Y0023536D01*
X0072083Y0023498D01*
X0072056Y0023458D01*
X0072033Y0023416D01*
X0072013Y0023373D01*
X0071996Y0023328D01*
X0071983Y0023282D01*
X0071974Y0023235D01*
X0071968Y0023187D01*
X0071966Y0023139D01*
X0066292Y0022528D02*
X0064092Y0022528D01*
X0064092Y0023139D01*
X0064094Y0023187D01*
X0064100Y0023235D01*
X0064109Y0023282D01*
X0064122Y0023328D01*
X0064139Y0023373D01*
X0064159Y0023416D01*
X0064182Y0023458D01*
X0064209Y0023498D01*
X0064238Y0023536D01*
X0064271Y0023571D01*
X0064306Y0023604D01*
X0064344Y0023633D01*
X0064384Y0023660D01*
X0064426Y0023683D01*
X0064469Y0023703D01*
X0064514Y0023720D01*
X0064560Y0023733D01*
X0064607Y0023742D01*
X0064655Y0023748D01*
X0064703Y0023750D01*
X0064751Y0023748D01*
X0064799Y0023742D01*
X0064846Y0023733D01*
X0064892Y0023720D01*
X0064937Y0023703D01*
X0064980Y0023683D01*
X0065022Y0023660D01*
X0065062Y0023633D01*
X0065100Y0023604D01*
X0065135Y0023571D01*
X0065168Y0023536D01*
X0065197Y0023498D01*
X0065224Y0023458D01*
X0065247Y0023416D01*
X0065267Y0023373D01*
X0065284Y0023328D01*
X0065297Y0023282D01*
X0065306Y0023235D01*
X0065312Y0023187D01*
X0065314Y0023139D01*
X0065314Y0022528D01*
X0065314Y0023261D02*
X0066292Y0023750D01*
X0066292Y0024674D02*
X0066292Y0025285D01*
X0066290Y0025333D01*
X0066284Y0025381D01*
X0066275Y0025428D01*
X0066262Y0025474D01*
X0066245Y0025519D01*
X0066225Y0025562D01*
X0066202Y0025604D01*
X0066175Y0025644D01*
X0066146Y0025682D01*
X0066113Y0025717D01*
X0066078Y0025750D01*
X0066040Y0025779D01*
X0066000Y0025806D01*
X0065958Y0025829D01*
X0065915Y0025849D01*
X0065870Y0025866D01*
X0065824Y0025879D01*
X0065777Y0025888D01*
X0065729Y0025894D01*
X0065681Y0025896D01*
X0065633Y0025894D01*
X0065585Y0025888D01*
X0065538Y0025879D01*
X0065492Y0025866D01*
X0065447Y0025849D01*
X0065404Y0025829D01*
X0065362Y0025806D01*
X0065322Y0025779D01*
X0065284Y0025750D01*
X0065249Y0025717D01*
X0065216Y0025682D01*
X0065187Y0025644D01*
X0065160Y0025604D01*
X0065137Y0025562D01*
X0065117Y0025519D01*
X0065100Y0025474D01*
X0065087Y0025428D01*
X0065078Y0025381D01*
X0065072Y0025333D01*
X0065070Y0025285D01*
X0065070Y0025407D02*
X0065070Y0024918D01*
X0065070Y0025407D02*
X0065068Y0025450D01*
X0065063Y0025492D01*
X0065053Y0025534D01*
X0065041Y0025574D01*
X0065024Y0025614D01*
X0065004Y0025652D01*
X0064982Y0025687D01*
X0064956Y0025721D01*
X0064927Y0025753D01*
X0064895Y0025782D01*
X0064861Y0025808D01*
X0064826Y0025830D01*
X0064788Y0025850D01*
X0064748Y0025867D01*
X0064708Y0025879D01*
X0064666Y0025889D01*
X0064624Y0025894D01*
X0064581Y0025896D01*
X0064538Y0025894D01*
X0064496Y0025889D01*
X0064454Y0025879D01*
X0064414Y0025867D01*
X0064374Y0025850D01*
X0064337Y0025830D01*
X0064301Y0025808D01*
X0064267Y0025782D01*
X0064235Y0025753D01*
X0064206Y0025721D01*
X0064180Y0025687D01*
X0064158Y0025652D01*
X0064138Y0025614D01*
X0064121Y0025574D01*
X0064109Y0025534D01*
X0064099Y0025492D01*
X0064094Y0025450D01*
X0064092Y0025407D01*
X0064092Y0024674D01*
X0058418Y0025529D02*
X0057440Y0025529D01*
X0057929Y0025896D02*
X0057929Y0024674D01*
X0056218Y0025163D01*
X0056218Y0023139D02*
X0056218Y0022528D01*
X0058418Y0022528D01*
X0057440Y0022528D02*
X0057440Y0023139D01*
X0057440Y0023261D02*
X0058418Y0023750D01*
X0057440Y0023139D02*
X0057438Y0023187D01*
X0057432Y0023235D01*
X0057423Y0023282D01*
X0057410Y0023328D01*
X0057393Y0023373D01*
X0057373Y0023416D01*
X0057350Y0023458D01*
X0057323Y0023498D01*
X0057294Y0023536D01*
X0057261Y0023571D01*
X0057226Y0023604D01*
X0057188Y0023633D01*
X0057148Y0023660D01*
X0057106Y0023683D01*
X0057063Y0023703D01*
X0057018Y0023720D01*
X0056972Y0023733D01*
X0056925Y0023742D01*
X0056877Y0023748D01*
X0056829Y0023750D01*
X0056781Y0023748D01*
X0056733Y0023742D01*
X0056686Y0023733D01*
X0056640Y0023720D01*
X0056595Y0023703D01*
X0056552Y0023683D01*
X0056510Y0023660D01*
X0056470Y0023633D01*
X0056432Y0023604D01*
X0056397Y0023571D01*
X0056364Y0023536D01*
X0056335Y0023498D01*
X0056308Y0023458D01*
X0056285Y0023416D01*
X0056265Y0023373D01*
X0056248Y0023328D01*
X0056235Y0023282D01*
X0056226Y0023235D01*
X0056220Y0023187D01*
X0056218Y0023139D01*
X0050544Y0022528D02*
X0048344Y0022528D01*
X0048344Y0023139D01*
X0048346Y0023187D01*
X0048352Y0023235D01*
X0048361Y0023282D01*
X0048374Y0023328D01*
X0048391Y0023373D01*
X0048411Y0023416D01*
X0048434Y0023458D01*
X0048461Y0023498D01*
X0048490Y0023536D01*
X0048523Y0023571D01*
X0048558Y0023604D01*
X0048596Y0023633D01*
X0048636Y0023660D01*
X0048678Y0023683D01*
X0048721Y0023703D01*
X0048766Y0023720D01*
X0048812Y0023733D01*
X0048859Y0023742D01*
X0048907Y0023748D01*
X0048955Y0023750D01*
X0049003Y0023748D01*
X0049051Y0023742D01*
X0049098Y0023733D01*
X0049144Y0023720D01*
X0049189Y0023703D01*
X0049232Y0023683D01*
X0049274Y0023660D01*
X0049314Y0023633D01*
X0049352Y0023604D01*
X0049387Y0023571D01*
X0049420Y0023536D01*
X0049449Y0023498D01*
X0049476Y0023458D01*
X0049499Y0023416D01*
X0049519Y0023373D01*
X0049536Y0023328D01*
X0049549Y0023282D01*
X0049558Y0023235D01*
X0049564Y0023187D01*
X0049566Y0023139D01*
X0049566Y0022528D01*
X0049566Y0023261D02*
X0050544Y0023750D01*
X0050544Y0024674D02*
X0050544Y0025407D01*
X0050542Y0025450D01*
X0050537Y0025492D01*
X0050527Y0025534D01*
X0050515Y0025574D01*
X0050498Y0025614D01*
X0050478Y0025652D01*
X0050456Y0025687D01*
X0050430Y0025721D01*
X0050401Y0025753D01*
X0050369Y0025782D01*
X0050335Y0025808D01*
X0050300Y0025830D01*
X0050262Y0025850D01*
X0050222Y0025867D01*
X0050182Y0025879D01*
X0050140Y0025889D01*
X0050098Y0025894D01*
X0050055Y0025896D01*
X0049811Y0025896D01*
X0049768Y0025894D01*
X0049726Y0025889D01*
X0049684Y0025879D01*
X0049644Y0025867D01*
X0049604Y0025850D01*
X0049567Y0025830D01*
X0049531Y0025808D01*
X0049497Y0025782D01*
X0049465Y0025753D01*
X0049436Y0025721D01*
X0049410Y0025687D01*
X0049388Y0025652D01*
X0049368Y0025614D01*
X0049351Y0025574D01*
X0049339Y0025534D01*
X0049329Y0025492D01*
X0049324Y0025450D01*
X0049322Y0025407D01*
X0049322Y0024674D01*
X0048344Y0024674D01*
X0048344Y0025896D01*
X0042670Y0023750D02*
X0041692Y0023261D01*
X0041692Y0023139D02*
X0041692Y0022528D01*
X0041692Y0023139D02*
X0041690Y0023187D01*
X0041684Y0023235D01*
X0041675Y0023282D01*
X0041662Y0023328D01*
X0041645Y0023373D01*
X0041625Y0023416D01*
X0041602Y0023458D01*
X0041575Y0023498D01*
X0041546Y0023536D01*
X0041513Y0023571D01*
X0041478Y0023604D01*
X0041440Y0023633D01*
X0041400Y0023660D01*
X0041358Y0023683D01*
X0041315Y0023703D01*
X0041270Y0023720D01*
X0041224Y0023733D01*
X0041177Y0023742D01*
X0041129Y0023748D01*
X0041081Y0023750D01*
X0041033Y0023748D01*
X0040985Y0023742D01*
X0040938Y0023733D01*
X0040892Y0023720D01*
X0040847Y0023703D01*
X0040804Y0023683D01*
X0040762Y0023660D01*
X0040722Y0023633D01*
X0040684Y0023604D01*
X0040649Y0023571D01*
X0040616Y0023536D01*
X0040587Y0023498D01*
X0040560Y0023458D01*
X0040537Y0023416D01*
X0040517Y0023373D01*
X0040500Y0023328D01*
X0040487Y0023282D01*
X0040478Y0023235D01*
X0040472Y0023187D01*
X0040470Y0023139D01*
X0040470Y0022528D01*
X0042670Y0022528D01*
X0042059Y0024674D02*
X0041448Y0024674D01*
X0041448Y0025407D01*
X0041448Y0024674D02*
X0041387Y0024676D01*
X0041325Y0024682D01*
X0041265Y0024691D01*
X0041205Y0024705D01*
X0041146Y0024722D01*
X0041088Y0024743D01*
X0041032Y0024767D01*
X0040977Y0024795D01*
X0040924Y0024826D01*
X0040873Y0024861D01*
X0040825Y0024898D01*
X0040779Y0024939D01*
X0040735Y0024983D01*
X0040694Y0025029D01*
X0040657Y0025077D01*
X0040622Y0025128D01*
X0040591Y0025181D01*
X0040563Y0025236D01*
X0040539Y0025292D01*
X0040518Y0025350D01*
X0040501Y0025409D01*
X0040487Y0025469D01*
X0040478Y0025529D01*
X0040472Y0025591D01*
X0040470Y0025652D01*
X0041937Y0025896D02*
X0042059Y0025896D01*
X0041937Y0025896D02*
X0041894Y0025894D01*
X0041852Y0025889D01*
X0041810Y0025879D01*
X0041770Y0025867D01*
X0041730Y0025850D01*
X0041693Y0025830D01*
X0041657Y0025808D01*
X0041623Y0025782D01*
X0041591Y0025753D01*
X0041562Y0025721D01*
X0041536Y0025687D01*
X0041514Y0025652D01*
X0041494Y0025614D01*
X0041477Y0025574D01*
X0041465Y0025534D01*
X0041455Y0025492D01*
X0041450Y0025450D01*
X0041448Y0025407D01*
X0042059Y0025896D02*
X0042107Y0025894D01*
X0042155Y0025888D01*
X0042202Y0025879D01*
X0042248Y0025866D01*
X0042293Y0025849D01*
X0042336Y0025829D01*
X0042378Y0025806D01*
X0042418Y0025779D01*
X0042456Y0025750D01*
X0042491Y0025717D01*
X0042524Y0025682D01*
X0042553Y0025644D01*
X0042580Y0025604D01*
X0042603Y0025562D01*
X0042623Y0025519D01*
X0042640Y0025474D01*
X0042653Y0025428D01*
X0042662Y0025381D01*
X0042668Y0025333D01*
X0042670Y0025285D01*
X0042668Y0025237D01*
X0042662Y0025189D01*
X0042653Y0025142D01*
X0042640Y0025096D01*
X0042623Y0025051D01*
X0042603Y0025008D01*
X0042580Y0024966D01*
X0042553Y0024926D01*
X0042524Y0024888D01*
X0042491Y0024853D01*
X0042456Y0024820D01*
X0042418Y0024791D01*
X0042378Y0024764D01*
X0042336Y0024741D01*
X0042293Y0024721D01*
X0042248Y0024704D01*
X0042202Y0024691D01*
X0042155Y0024682D01*
X0042107Y0024676D01*
X0042059Y0024674D01*
X0034009Y0024891D02*
X0031809Y0025502D01*
X0031809Y0024280D01*
X0032053Y0024280D01*
X0031809Y0022745D02*
X0031809Y0022134D01*
X0034009Y0022134D01*
X0033031Y0022134D02*
X0033031Y0022745D01*
X0033031Y0022868D02*
X0034009Y0023357D01*
X0033031Y0022745D02*
X0033029Y0022793D01*
X0033023Y0022841D01*
X0033014Y0022888D01*
X0033001Y0022934D01*
X0032984Y0022979D01*
X0032964Y0023022D01*
X0032941Y0023064D01*
X0032914Y0023104D01*
X0032885Y0023142D01*
X0032852Y0023177D01*
X0032817Y0023210D01*
X0032779Y0023239D01*
X0032739Y0023266D01*
X0032697Y0023289D01*
X0032654Y0023309D01*
X0032609Y0023326D01*
X0032563Y0023339D01*
X0032516Y0023348D01*
X0032468Y0023354D01*
X0032420Y0023356D01*
X0032372Y0023354D01*
X0032324Y0023348D01*
X0032277Y0023339D01*
X0032231Y0023326D01*
X0032186Y0023309D01*
X0032143Y0023289D01*
X0032101Y0023266D01*
X0032061Y0023239D01*
X0032023Y0023210D01*
X0031988Y0023177D01*
X0031955Y0023142D01*
X0031926Y0023104D01*
X0031899Y0023064D01*
X0031876Y0023022D01*
X0031856Y0022979D01*
X0031839Y0022934D01*
X0031826Y0022888D01*
X0031817Y0022841D01*
X0031811Y0022793D01*
X0031809Y0022745D01*
X0091088Y0023967D02*
X0091115Y0024027D01*
X0091139Y0024088D01*
X0091159Y0024150D01*
X0091175Y0024214D01*
X0091188Y0024278D01*
X0091198Y0024342D01*
X0091203Y0024408D01*
X0091205Y0024473D01*
X0090426Y0024473D02*
X0090428Y0024538D01*
X0090433Y0024604D01*
X0090443Y0024668D01*
X0090456Y0024732D01*
X0090472Y0024796D01*
X0090492Y0024858D01*
X0090516Y0024919D01*
X0090543Y0024979D01*
X0090816Y0025173D02*
X0090848Y0025171D01*
X0090880Y0025166D01*
X0090912Y0025157D01*
X0090942Y0025144D01*
X0090970Y0025128D01*
X0090996Y0025110D01*
X0091020Y0025088D01*
X0091042Y0025064D01*
X0091061Y0025037D01*
X0091076Y0025008D01*
X0091088Y0024978D01*
X0091127Y0024862D02*
X0090505Y0024084D01*
X0090816Y0023773D02*
X0090848Y0023775D01*
X0090880Y0023780D01*
X0090912Y0023789D01*
X0090942Y0023802D01*
X0090970Y0023818D01*
X0090996Y0023836D01*
X0091020Y0023858D01*
X0091042Y0023882D01*
X0091061Y0023909D01*
X0091076Y0023938D01*
X0091088Y0023968D01*
X0090816Y0023773D02*
X0090784Y0023775D01*
X0090752Y0023780D01*
X0090720Y0023789D01*
X0090690Y0023802D01*
X0090662Y0023818D01*
X0090636Y0023836D01*
X0090612Y0023858D01*
X0090590Y0023882D01*
X0090571Y0023909D01*
X0090556Y0023938D01*
X0090544Y0023968D01*
X0091205Y0024473D02*
X0091203Y0024538D01*
X0091198Y0024604D01*
X0091188Y0024668D01*
X0091175Y0024732D01*
X0091159Y0024796D01*
X0091139Y0024858D01*
X0091115Y0024919D01*
X0091088Y0024979D01*
X0090816Y0025173D02*
X0090784Y0025171D01*
X0090752Y0025166D01*
X0090720Y0025157D01*
X0090690Y0025144D01*
X0090662Y0025128D01*
X0090636Y0025110D01*
X0090612Y0025088D01*
X0090590Y0025064D01*
X0090571Y0025037D01*
X0090556Y0025008D01*
X0090544Y0024978D01*
X0090427Y0024473D02*
X0090429Y0024408D01*
X0090434Y0024342D01*
X0090444Y0024278D01*
X0090457Y0024214D01*
X0090473Y0024150D01*
X0090493Y0024088D01*
X0090517Y0024027D01*
X0090544Y0023967D01*
X0091785Y0023851D02*
X0091863Y0023851D01*
X0091863Y0023773D01*
X0091785Y0023773D01*
X0091785Y0023851D01*
X0092443Y0023773D02*
X0093221Y0023773D01*
X0092832Y0023773D02*
X0092832Y0025173D01*
X0092443Y0024862D01*
X0093913Y0024707D02*
X0093913Y0024007D01*
X0093915Y0023979D01*
X0093920Y0023951D01*
X0093928Y0023924D01*
X0093940Y0023899D01*
X0093954Y0023875D01*
X0093972Y0023852D01*
X0093991Y0023833D01*
X0094014Y0023815D01*
X0094038Y0023801D01*
X0094063Y0023789D01*
X0094090Y0023781D01*
X0094118Y0023776D01*
X0094146Y0023774D01*
X0094146Y0023773D02*
X0094535Y0023773D01*
X0094535Y0024707D01*
X0095278Y0024551D02*
X0095901Y0024551D01*
X0095901Y0025173D02*
X0095278Y0025173D01*
X0095278Y0023773D01*
X0095180Y0093600D02*
X0094791Y0093600D01*
X0094763Y0093602D01*
X0094735Y0093607D01*
X0094708Y0093615D01*
X0094683Y0093627D01*
X0094659Y0093641D01*
X0094636Y0093659D01*
X0094617Y0093678D01*
X0094599Y0093701D01*
X0094585Y0093725D01*
X0094573Y0093750D01*
X0094565Y0093777D01*
X0094560Y0093805D01*
X0094558Y0093833D01*
X0094558Y0094533D01*
X0095180Y0094533D02*
X0095180Y0093600D01*
X0095924Y0093600D02*
X0095924Y0095000D01*
X0096546Y0095000D01*
X0096546Y0094378D02*
X0095924Y0094378D01*
X0093866Y0093600D02*
X0093088Y0093600D01*
X0093477Y0093600D02*
X0093477Y0095000D01*
X0093088Y0094689D01*
D15*
X0083705Y0095988D02*
X0083705Y0103862D01*
X0034965Y0103862D01*
X0034965Y0095988D01*
X0083705Y0095988D01*
X0095988Y0082209D02*
X0095988Y0033469D01*
X0103862Y0033469D01*
X0103862Y0082209D01*
X0095988Y0082209D01*
X0068823Y0073547D02*
X0068823Y0072366D01*
X0068823Y0073547D02*
X0067642Y0074728D01*
X0066461Y0074728D01*
X0050713Y0074728D02*
X0049728Y0074728D01*
X0049531Y0074728D02*
X0048350Y0073547D01*
X0048350Y0073350D02*
X0048350Y0072366D01*
X0046579Y0075516D02*
X0046581Y0075578D01*
X0046587Y0075641D01*
X0046597Y0075702D01*
X0046611Y0075763D01*
X0046628Y0075823D01*
X0046649Y0075882D01*
X0046675Y0075939D01*
X0046703Y0075994D01*
X0046735Y0076048D01*
X0046771Y0076099D01*
X0046809Y0076149D01*
X0046851Y0076195D01*
X0046895Y0076239D01*
X0046943Y0076280D01*
X0046992Y0076318D01*
X0047044Y0076352D01*
X0047098Y0076383D01*
X0047154Y0076411D01*
X0047212Y0076435D01*
X0047271Y0076456D01*
X0047331Y0076472D01*
X0047392Y0076485D01*
X0047454Y0076494D01*
X0047516Y0076499D01*
X0047579Y0076500D01*
X0047641Y0076497D01*
X0047703Y0076490D01*
X0047765Y0076479D01*
X0047825Y0076464D01*
X0047885Y0076446D01*
X0047943Y0076424D01*
X0048000Y0076398D01*
X0048055Y0076368D01*
X0048108Y0076335D01*
X0048159Y0076299D01*
X0048207Y0076260D01*
X0048253Y0076217D01*
X0048296Y0076172D01*
X0048336Y0076124D01*
X0048373Y0076074D01*
X0048407Y0076021D01*
X0048438Y0075967D01*
X0048464Y0075911D01*
X0048488Y0075853D01*
X0048507Y0075793D01*
X0048523Y0075733D01*
X0048535Y0075671D01*
X0048543Y0075610D01*
X0048547Y0075547D01*
X0048547Y0075485D01*
X0048543Y0075422D01*
X0048535Y0075361D01*
X0048523Y0075299D01*
X0048507Y0075239D01*
X0048488Y0075179D01*
X0048464Y0075121D01*
X0048438Y0075065D01*
X0048407Y0075011D01*
X0048373Y0074958D01*
X0048336Y0074908D01*
X0048296Y0074860D01*
X0048253Y0074815D01*
X0048207Y0074772D01*
X0048159Y0074733D01*
X0048108Y0074697D01*
X0048055Y0074664D01*
X0048000Y0074634D01*
X0047943Y0074608D01*
X0047885Y0074586D01*
X0047825Y0074568D01*
X0047765Y0074553D01*
X0047703Y0074542D01*
X0047641Y0074535D01*
X0047579Y0074532D01*
X0047516Y0074533D01*
X0047454Y0074538D01*
X0047392Y0074547D01*
X0047331Y0074560D01*
X0047271Y0074576D01*
X0047212Y0074597D01*
X0047154Y0074621D01*
X0047098Y0074649D01*
X0047044Y0074680D01*
X0046992Y0074714D01*
X0046943Y0074752D01*
X0046895Y0074793D01*
X0046851Y0074837D01*
X0046809Y0074883D01*
X0046771Y0074933D01*
X0046735Y0074984D01*
X0046703Y0075038D01*
X0046675Y0075093D01*
X0046649Y0075150D01*
X0046628Y0075209D01*
X0046611Y0075269D01*
X0046597Y0075330D01*
X0046587Y0075391D01*
X0046581Y0075454D01*
X0046579Y0075516D01*
X0048350Y0056618D02*
X0048350Y0055437D01*
X0049531Y0054256D01*
X0050713Y0054256D01*
X0066461Y0054256D02*
X0067642Y0054256D01*
X0068823Y0055437D01*
X0068823Y0056618D01*
X0082209Y0021185D02*
X0033469Y0021185D01*
X0033469Y0013311D01*
X0082209Y0013311D01*
X0082209Y0021185D01*
X0021185Y0034965D02*
X0021185Y0083705D01*
X0013311Y0083705D01*
X0013311Y0034965D01*
X0021185Y0034965D01*
D16*
X0018461Y0032028D02*
X0018461Y0030306D01*
X0018461Y0031167D02*
X0015361Y0031167D01*
X0016050Y0030306D01*
X0015361Y0028789D02*
X0017773Y0028789D01*
X0017824Y0028787D01*
X0017876Y0028781D01*
X0017926Y0028772D01*
X0017976Y0028758D01*
X0018025Y0028741D01*
X0018072Y0028721D01*
X0018118Y0028697D01*
X0018161Y0028669D01*
X0018203Y0028639D01*
X0018242Y0028605D01*
X0018278Y0028569D01*
X0018312Y0028530D01*
X0018342Y0028488D01*
X0018370Y0028445D01*
X0018394Y0028399D01*
X0018414Y0028352D01*
X0018431Y0028303D01*
X0018445Y0028253D01*
X0018454Y0028203D01*
X0018460Y0028151D01*
X0018462Y0028100D01*
X0018461Y0028100D02*
X0018461Y0027756D01*
X0056149Y0059771D02*
X0056149Y0060793D01*
X0056149Y0060282D02*
X0060749Y0060282D01*
X0060749Y0059771D02*
X0060749Y0060793D01*
X0059727Y0062591D02*
X0057171Y0062591D01*
X0057109Y0062593D01*
X0057048Y0062598D01*
X0056987Y0062608D01*
X0056926Y0062621D01*
X0056867Y0062637D01*
X0056809Y0062657D01*
X0056752Y0062681D01*
X0056696Y0062708D01*
X0056642Y0062738D01*
X0056590Y0062772D01*
X0056541Y0062808D01*
X0056493Y0062848D01*
X0056448Y0062890D01*
X0056406Y0062935D01*
X0056367Y0062983D01*
X0056330Y0063032D01*
X0056296Y0063084D01*
X0056266Y0063138D01*
X0056239Y0063194D01*
X0056215Y0063251D01*
X0056195Y0063309D01*
X0056179Y0063368D01*
X0056166Y0063429D01*
X0056156Y0063490D01*
X0056151Y0063551D01*
X0056149Y0063613D01*
X0056149Y0064636D01*
X0057171Y0066354D02*
X0056149Y0067632D01*
X0060749Y0067632D01*
X0060749Y0066354D02*
X0060749Y0068910D01*
X0060749Y0064636D02*
X0060749Y0063613D01*
X0060747Y0063551D01*
X0060742Y0063490D01*
X0060732Y0063429D01*
X0060719Y0063368D01*
X0060703Y0063309D01*
X0060683Y0063251D01*
X0060659Y0063194D01*
X0060632Y0063138D01*
X0060602Y0063084D01*
X0060568Y0063032D01*
X0060532Y0062983D01*
X0060492Y0062935D01*
X0060450Y0062890D01*
X0060405Y0062848D01*
X0060357Y0062808D01*
X0060308Y0062772D01*
X0060256Y0062738D01*
X0060202Y0062708D01*
X0060146Y0062681D01*
X0060089Y0062657D01*
X0060031Y0062637D01*
X0059972Y0062621D01*
X0059911Y0062608D01*
X0059850Y0062598D01*
X0059789Y0062593D01*
X0059727Y0062591D01*
X0031561Y0098318D02*
X0030700Y0098318D01*
X0031561Y0098318D02*
X0031619Y0098320D01*
X0031676Y0098326D01*
X0031732Y0098335D01*
X0031788Y0098349D01*
X0031843Y0098366D01*
X0031897Y0098386D01*
X0031949Y0098411D01*
X0032000Y0098438D01*
X0032048Y0098469D01*
X0032095Y0098503D01*
X0032139Y0098540D01*
X0032180Y0098580D01*
X0032219Y0098623D01*
X0032254Y0098668D01*
X0032287Y0098716D01*
X0032316Y0098765D01*
X0032342Y0098817D01*
X0032364Y0098870D01*
X0032383Y0098924D01*
X0032399Y0098979D01*
X0032410Y0099036D01*
X0032418Y0099093D01*
X0032422Y0099150D01*
X0032422Y0099208D01*
X0032418Y0099265D01*
X0032410Y0099322D01*
X0032399Y0099379D01*
X0032383Y0099434D01*
X0032364Y0099488D01*
X0032342Y0099541D01*
X0032316Y0099593D01*
X0032287Y0099642D01*
X0032254Y0099690D01*
X0032219Y0099735D01*
X0032180Y0099778D01*
X0032139Y0099818D01*
X0032095Y0099855D01*
X0032048Y0099889D01*
X0032000Y0099920D01*
X0031949Y0099947D01*
X0031897Y0099972D01*
X0031843Y0099992D01*
X0031788Y0100009D01*
X0031732Y0100023D01*
X0031676Y0100032D01*
X0031619Y0100038D01*
X0031561Y0100040D01*
X0031733Y0100040D02*
X0031044Y0100040D01*
X0031733Y0100040D02*
X0031784Y0100042D01*
X0031836Y0100048D01*
X0031886Y0100057D01*
X0031936Y0100071D01*
X0031985Y0100088D01*
X0032032Y0100108D01*
X0032078Y0100132D01*
X0032121Y0100160D01*
X0032163Y0100190D01*
X0032202Y0100224D01*
X0032238Y0100260D01*
X0032272Y0100299D01*
X0032302Y0100341D01*
X0032330Y0100385D01*
X0032354Y0100430D01*
X0032374Y0100477D01*
X0032391Y0100526D01*
X0032405Y0100576D01*
X0032414Y0100626D01*
X0032420Y0100678D01*
X0032422Y0100729D01*
X0032420Y0100780D01*
X0032414Y0100832D01*
X0032405Y0100882D01*
X0032391Y0100932D01*
X0032374Y0100981D01*
X0032354Y0101028D01*
X0032330Y0101074D01*
X0032302Y0101117D01*
X0032272Y0101159D01*
X0032238Y0101198D01*
X0032202Y0101234D01*
X0032163Y0101268D01*
X0032121Y0101298D01*
X0032077Y0101326D01*
X0032032Y0101350D01*
X0031985Y0101370D01*
X0031936Y0101387D01*
X0031886Y0101401D01*
X0031836Y0101410D01*
X0031784Y0101416D01*
X0031733Y0101418D01*
X0030700Y0101418D01*
X0029183Y0101418D02*
X0029183Y0099007D01*
X0029181Y0098956D01*
X0029175Y0098904D01*
X0029166Y0098854D01*
X0029152Y0098804D01*
X0029135Y0098755D01*
X0029115Y0098708D01*
X0029091Y0098663D01*
X0029063Y0098619D01*
X0029033Y0098577D01*
X0028999Y0098538D01*
X0028963Y0098502D01*
X0028924Y0098468D01*
X0028882Y0098438D01*
X0028839Y0098410D01*
X0028793Y0098386D01*
X0028746Y0098366D01*
X0028697Y0098349D01*
X0028647Y0098335D01*
X0028597Y0098326D01*
X0028545Y0098320D01*
X0028494Y0098318D01*
X0028149Y0098318D01*
X0097531Y0088384D02*
X0099942Y0087695D01*
X0099942Y0089418D01*
X0099253Y0088901D02*
X0100631Y0088901D01*
X0099942Y0086178D02*
X0097531Y0086178D01*
X0099942Y0086178D02*
X0099993Y0086176D01*
X0100045Y0086170D01*
X0100095Y0086161D01*
X0100145Y0086147D01*
X0100194Y0086130D01*
X0100241Y0086110D01*
X0100287Y0086086D01*
X0100330Y0086058D01*
X0100372Y0086028D01*
X0100411Y0085994D01*
X0100447Y0085958D01*
X0100481Y0085919D01*
X0100511Y0085877D01*
X0100539Y0085834D01*
X0100563Y0085788D01*
X0100583Y0085741D01*
X0100600Y0085692D01*
X0100614Y0085642D01*
X0100623Y0085592D01*
X0100629Y0085540D01*
X0100631Y0085489D01*
X0100631Y0085145D01*
X0085785Y0019249D02*
X0085785Y0016838D01*
X0085783Y0016787D01*
X0085777Y0016735D01*
X0085768Y0016685D01*
X0085754Y0016635D01*
X0085737Y0016586D01*
X0085717Y0016539D01*
X0085693Y0016494D01*
X0085665Y0016450D01*
X0085635Y0016408D01*
X0085601Y0016369D01*
X0085565Y0016333D01*
X0085526Y0016299D01*
X0085484Y0016269D01*
X0085441Y0016241D01*
X0085395Y0016217D01*
X0085348Y0016197D01*
X0085299Y0016180D01*
X0085249Y0016166D01*
X0085199Y0016157D01*
X0085147Y0016151D01*
X0085096Y0016149D01*
X0084751Y0016149D01*
X0087302Y0016149D02*
X0089024Y0016149D01*
X0087302Y0016149D02*
X0088766Y0017871D01*
X0088249Y0019249D02*
X0088189Y0019247D01*
X0088130Y0019242D01*
X0088071Y0019233D01*
X0088013Y0019221D01*
X0087955Y0019205D01*
X0087899Y0019185D01*
X0087844Y0019163D01*
X0087790Y0019137D01*
X0087738Y0019108D01*
X0087688Y0019076D01*
X0087639Y0019041D01*
X0087593Y0019003D01*
X0087550Y0018962D01*
X0087508Y0018919D01*
X0087470Y0018873D01*
X0087434Y0018826D01*
X0087401Y0018776D01*
X0087372Y0018724D01*
X0087345Y0018671D01*
X0087322Y0018616D01*
X0087301Y0018560D01*
X0088766Y0017872D02*
X0088805Y0017912D01*
X0088842Y0017954D01*
X0088875Y0017999D01*
X0088906Y0018046D01*
X0088933Y0018095D01*
X0088957Y0018146D01*
X0088977Y0018199D01*
X0088994Y0018252D01*
X0089007Y0018307D01*
X0089016Y0018362D01*
X0089022Y0018418D01*
X0089024Y0018474D01*
X0089022Y0018529D01*
X0089016Y0018584D01*
X0089006Y0018639D01*
X0088993Y0018692D01*
X0088975Y0018745D01*
X0088954Y0018796D01*
X0088929Y0018845D01*
X0088901Y0018893D01*
X0088869Y0018938D01*
X0088835Y0018982D01*
X0088797Y0019022D01*
X0088757Y0019060D01*
X0088713Y0019094D01*
X0088668Y0019126D01*
X0088620Y0019154D01*
X0088571Y0019179D01*
X0088520Y0019200D01*
X0088467Y0019218D01*
X0088414Y0019231D01*
X0088359Y0019241D01*
X0088304Y0019247D01*
X0088249Y0019249D01*
M02*
