G75*
%MOIN*%
%OFA0B0*%
%FSLAX25Y25*%
%IPPOS*%
%LPD*%
%AMOC8*
5,1,8,0,0,1.08239X$1,22.5*
%
%ADD10C,0.08674*%
%ADD11R,0.05918X0.06706*%
%ADD12R,0.06706X0.05918*%
%ADD13R,0.08674X0.01981*%
%ADD14R,0.01981X0.08674*%
%ADD15R,0.04737X0.05131*%
%ADD16R,0.05131X0.04737*%
%ADD17R,0.06800X0.06800*%
%ADD18C,0.06800*%
%ADD19C,0.03778*%
D10*
X0021185Y0095988D03*
D11*
X0064689Y0088114D03*
X0072169Y0088114D03*
D12*
X0088114Y0087917D03*
X0088114Y0080437D03*
X0084177Y0036736D03*
X0084177Y0029256D03*
D13*
X0071972Y0057602D03*
X0071972Y0059571D03*
X0071972Y0061539D03*
X0071972Y0063508D03*
X0071972Y0065476D03*
X0071972Y0067445D03*
X0071972Y0069413D03*
X0071972Y0071382D03*
X0045201Y0071382D03*
X0045201Y0069413D03*
X0045201Y0067445D03*
X0045201Y0065476D03*
X0045201Y0063508D03*
X0045201Y0061539D03*
X0045201Y0059571D03*
X0045201Y0057602D03*
D14*
X0051697Y0051106D03*
X0053665Y0051106D03*
X0055634Y0051106D03*
X0057602Y0051106D03*
X0059571Y0051106D03*
X0061539Y0051106D03*
X0063508Y0051106D03*
X0065476Y0051106D03*
X0065476Y0077878D03*
X0063508Y0077878D03*
X0061539Y0077878D03*
X0059571Y0077878D03*
X0057602Y0077878D03*
X0055634Y0077878D03*
X0053665Y0077878D03*
X0051697Y0077878D03*
D15*
X0032996Y0029650D03*
X0032996Y0036343D03*
X0040870Y0036343D03*
X0040870Y0029650D03*
X0048744Y0029650D03*
X0048744Y0036343D03*
X0056618Y0036343D03*
X0056618Y0029650D03*
X0064492Y0029650D03*
X0064492Y0036343D03*
X0072366Y0036343D03*
X0072366Y0029650D03*
D16*
X0080831Y0046776D03*
X0087524Y0046776D03*
D17*
X0078272Y0017248D03*
X0099925Y0078272D03*
X0038902Y0099925D03*
X0017248Y0038902D03*
D18*
X0017248Y0046776D03*
X0017248Y0054650D03*
X0017248Y0062524D03*
X0017248Y0070398D03*
X0017248Y0078272D03*
X0046776Y0099925D03*
X0054650Y0099925D03*
X0062524Y0099925D03*
X0070398Y0099925D03*
X0078272Y0099925D03*
X0099925Y0070398D03*
X0099925Y0062524D03*
X0099925Y0054650D03*
X0099925Y0046776D03*
X0099925Y0038902D03*
X0070398Y0017248D03*
X0062524Y0017248D03*
X0054650Y0017248D03*
X0046776Y0017248D03*
X0038902Y0017248D03*
D19*
X0091854Y0036736D03*
M02*
