%
M48
M72
T01C0.0138
T02C0.0320
T03C0.0787
%
T01
X9185Y3674
T02
X1725Y3890
X1725Y4678
X1725Y5465
X1725Y6252
X1725Y7040
X1725Y7827
X3890Y9993
X4678Y9993
X5465Y9993
X6252Y9993
X7040Y9993
X7827Y9993
X9993Y7827
X9993Y7040
X9993Y6252
X9993Y5465
X9993Y4678
X9993Y3890
X7827Y1725
X7040Y1725
X6252Y1725
X5465Y1725
X4678Y1725
X3890Y1725
T03
X2119Y9599
M30
